<svg xmlns="http://www.w3.org/2000/svg" xmlns:xlink="http://www.w3.org/1999/xlink" width="179" height="109" fill="none"><g fill="#673b16"><use xlink:href="#a"/><path d="M72.565 27.926c1.926 2.018 4.948 2.313 7.384 1.114 2.453-1.206 4.32-3.466 5.732-5.749a21.65 21.65 0 0 0 1.837-3.752c-.98-.251-1.531-.089-2.88.251-.893 1.992-2.079 3.88-3.614 5.434-1.79 1.814-4.574 3.267-6.867 1.351a3.464 3.464 0 0 1-1.154-3.518c.355-1.035 1.304-1.693 2.446-1.451.547.216.994.571.953 1.272-.026.425-.305.805-.725.819a.65.65 0 0 0 .22-.285c.148-.374-.087-.844-.481-.907-.406-.066-.777.282-.825.681-.181 1.481 1.902 1.464 2.518.487.696-1.104.103-2.638-1.02-3.18-1.128-.544-2.539-.345-3.526.399-2.241 1.688-1.745 5.203.004 7.035zm5.669 12.716c2.49 6.386 9.147 1.314 9.147 1.314s-6.076 5.557 2.536 15.577l.029-.037c8.175-10.233 3.05-15.359 3.05-15.359s6.43 4.664 8.558-1.449C94.483 40.25 90.779 30.47 89.945 27.97l-.184-.58S86.54 40.46 78.234 40.642zm15.626-2.754c1.446 1.858 3.226 2.886 5.603 2.87-2.546 1.359-5.293-.177-6.855-2.261-1.491-1.994-2.354-4.536-2.55-7.008 1.268 2.131 2.269 4.435 3.802 6.4zm-3.914 1.085.112-.26a18.73 18.73 0 0 0 1.5 7.156c0 3.952-1.5 7.157-1.5 7.157s-.043-.092-.112-.26v-.001c-.349-.836-1.387-3.605-1.387-6.895s1.038-6.058 1.387-6.894v-.003zm-3.695-1.294c1.438-1.926 2.417-4.133 3.641-6.191-.212 2.676-1.203 5.5-2.981 7.541-1.576 1.812-4.135 2.952-6.425 1.729 2.487.018 4.295-1.12 5.765-3.078zM64.139 24.225c-1.371.018-2.137-1.293-2.374-2.545-.041-.223-.311-.233-.455-.119-2.677 2.112-2.708 5.91-.483 8.282-.837-.069-1.409-.461-2.038-1.194-.167-.195-.456-.029-.467.191-.218 4.364 3.408 7.27 7.312 6.731l-1.723.668c-.207.089-.128.339 0 .471 2.863 2.944 6.952 2.672 10.831.883a8.96 8.96 0 0 1-1.437 1.416c-.237.185.027.407.263.455 6.291 1.281 14.188-4.397 14.196-16.847 0-.142-.207-.153-.322-.114-1.995 6.52-9.492 11.292-14.669 8.015-4.369-2.766-4.829-7.697-1.446-11.844.158-.193.034-.371-.194-.465-4.498-1.864-8.178 1.817-6.995 6.016zm7.27 6.789c3.897 2.108 8.951 1.488 12.348-1.298a7.47 7.47 0 0 1-.67.793c-2.755 3.878-7.698 5.544-12.271 4.356-4.415-1.146-8.411-4.709-9.005-9.374 1.358 3.266 3.706 5.663 6.912 7.173 3.282 1.545 7.088 1.73 10.432.262-3.673 1.198-8.033.351-10.728-2.496-2.839-3-2.943-7.161-1.027-10.665-.552 2.284-.87 4.523.023 6.768a8.735 8.735 0 0 0 3.985 4.481zM84.22 44.868c0-.352-.545-.352-.545 0 0 .243-1.109.488-1.298.497-.394.015-.787-.006-1.164-.138-.741-.256-1.33-.68-1.844-1.268-.125-.141-.427-.08-.455.12-.206 1.461-.147 3.838 1.637 4.33 1.119.308 2.043-.007 2.685-.662-.317 1.353-.695 2.679-.188 4.086.634 1.755 2.233 3.006 2.981 4.726.123.284.597.078.498-.212-.32-.929-.332-1.908-.545-2.862-.16-.714-.7-1.45-1.014-2.11-.703-1.479-.956-2.924-1.01-4.503l.079-.511a4.3 4.3 0 0 0 .182-1.117.27.27 0 0 0-.037-.139.265.265 0 0 0 .037-.135v-.103h.001zM89.9 5.577l.045-.001a3 3 0 0 0 2.953-2.997A2.995 2.995 0 0 0 91.427.001h-3.055a2.994 2.994 0 0 0-1.471 2.578A3 3 0 0 0 89.9 5.577zM62.726 108.013l.067-.207c-.063.078-.079.147-.067.207z"/><use xlink:href="#a" x="8.406" y="17.085"/><use xlink:href="#a" x="19.447" y="31.261"/><path d="M76.95 105.934a2.045 2.045 0 1 0-.001-4.09 2.045 2.045 0 0 0 .001 4.09zm3.385-94.18c.901-.026 1.745-.598 2.08-1.441.322-.811-.117-1.836-.994-2.057-.611-.153-1.29.278-1.202.917.039.285.268.581.588.594.27.012.552-.132.648-.398.026-.069.068-.329.001-.386.283.233.281.721.096 1.013-.19.504-1.055.739-1.552.494-.647-.318-1.128-.997-1.179-1.719-.057-.809.416-1.542 1.005-2.06 1.076-.946 2.581-1.036 3.865-.5 2.073.788 2.659 3.209 2.733 5.249.1-.012 1.478-.422 2.474-.234-.087-1.41-.39-2.795-1.036-4.033-1.248-2.392-4.003-3.856-6.684-3.252-1.842.416-3.625 1.935-3.908 3.878-.278 1.795 1.087 3.994 3.066 3.933zm-29.798 6.625c-.135 1.071-1.912 1.796-2.746 2.228-1.238.641-2.403 1.06-3.801 1.248-2.581.347-5.144.212-7.581 1.287-4.101 1.811-6.41 5.608-4.946 10.031.095.286.539.245.535-.073-.025-2.34 2.347-3.979 4.205-4.94 2.461-1.273 5.128-.737 7.771-.976 7.424-.671 8.242-5.578 7.026-8.468.037-.108-.421-.679-.463-.336zm-8.764 6.385c-1.616.092-3.118.348-4.611.999-1.336.569-2.583 1.337-3.976 1.773 2.135-2.356 4.347-4.355 7.66-4.623 1.41-.107 2.834.043 4.24-.119 1.378-.15 2.672-.697 3.775-1.529-1.16 2.889-4.368 3.342-7.089 3.498zM6.747 10.212c.076-.216.045-.482-.193-.467-1.846.123-1.562-1.547-.871-2.675.97-1.586 3.234-1.82 4.375-.239.882 1.225.436 3.001.343 4.377-.847 12.578 7.977 15.146 12.197 11.964-.728 2.851-1.159 6.117.649 8.605 1.476 2.033 4.173 3.224 6.643 2.676.133-.03.24-.201.191-.335-3.625-9.787 5.093-12.846 13.549-14.286C51.21 18.541 57.998 10.467 57.237 0h-3.185c-1.207 17.075-24.039 15.278-29.505 13.015C17.09 9.931 14.754 4.69 15.137.001h-2.935a20.93 20.93 0 0 0 .153 1.387c.371 2.617 1.309 5.17 2.823 7.343a15.13 15.13 0 0 0 5.391 4.737 17.393 17.393 0 0 0 3.634 1.389c.687.182 1.381.328 2.081.446.355.059.711.111 1.066.158l.793-.329c-.162.183-.566.365-.137.41-.492.09-.838.598-1.221.923a12.91 12.91 0 0 1-1.024.78c-.714.49-1.479.912-2.28 1.239-1.734.707-3.665.973-5.501.538-3.429-.813-6.121-4.129-5.922-7.707 1.07 2.48 2.954 4.763 5.584 5.641 3.038 1.016 6.251-.087 9.081-1.239-3.841.369-7.76-.77-10.708-3.282-2.729-2.313-4.484-5.64-5.043-9.159-.166-1.049-.257-2.171-.202-3.275H9.424a3.32 3.32 0 0 0 .539.884c-3.268-2.174-13.13 3.003-7.224 9.814.978 1.13 3.407 1.227 4.008-.487zm19.46 12.242c1.052-2.463 3.009-4.309 5.393-5.48 2.639-1.297 5.572-1.916 8.495-2.032 2.844-.113 5.689-.029 8.358-1.172-1.8 1.575-4.211 2.132-6.515 2.48-2.324.349-4.596.65-6.837 1.391-2.737.883-5.373 2.207-7.051 4.63-1.52 2.195-2.488 5.41-1.406 7.991-1.803-2.046-1.425-5.493-.436-7.807zM2.07 6.921c-1.39-1.932.178-4.388 2.054-5.233 1.691-.763 4.155-.512 5.074 1.311-1.654-.524-3.388-.303-4.805.727-1.482 1.096-1.742 2.53-1.057 4.18A2.78 2.78 0 0 1 2.07 6.92zm74.249 74.974c1.915-.521 12.877-5.817 8.466-24.93 1.356 17.02-8.44 17.472-10.357 17.994s-3.045 2.497-2.523 4.413 2.498 3.045 4.413 2.523zm1.007-5.573c1.084-.7 2.172-1.398 3.297-2.032-.603 2.466-4.021 4.802-6.543 4.089 1.099-.659 2.17-1.362 3.247-2.057zM56.213 12.134c-1.188 2.168-2.625 4.029-2.981 6.546-.332 2.346.78 4.21 1.586 6.314.11.29.51.242.534-.072.27-3.35 2.421-5.084 4.912-6.994 1.858-1.424 3.185-3.61 3.434-5.952.288-2.68-.537-5.045-1.679-7.425-.676-1.413-1.674-2.664-2.615-3.911 2.997 2.413 6.99 3.79 10.228-.062a.291.291 0 0 0 .043-.329c-.046-.087-.105-.168-.16-.248H57.41c.452 1.076.909 3.82.939 4.209.212 2.795-.816 5.515-2.135 7.923zm3.689-8.043c1.504 2.709 1.565 5.872-.023 8.556-.748 1.246-1.731 2.324-2.786 3.317-.924.86-2.364 1.656-2.643 2.985-.448-1.09.328-2.263.921-3.121 1.226-1.792 2.694-3.495 3.569-5.499.865-1.981.865-4.115.962-6.238zM51.924.001h-2.568c.127 1.623-.25 3.21-1.584 4.227.493-1.368.438-2.809.063-4.227h-2.209a11.094 11.094 0 0 1-1.057 3.988c-1.462 3.024-4.282 5.109-7.702 5.144C38.56 8.362 40.099 7.47 41.281 6c1.148-1.428 1.912-3.127 2.273-4.922l.165-1.076h-2.995C39.68 3.686 36.422 7.049 29.78 9.337c4.899 6.838 20.85 2.336 22.144-9.335z"/><use xlink:href="#a" x="-.045" y="-21.219"/><path d="M44.873 30.328c-1.701 1.849-2.54 4.476-1.838 6.937.589 2.068 2.158 3.717 4.061 4.657-5.259-.308-8.922 4.871-8.218 9.922.349 2.505 1.654 4.937 3.827 6.311 1.55.994 3.427 1.323 5.206 1a8.153 8.153 0 0 0-.593.431 7.992 7.992 0 0 0-2.175 2.759c-1.088 2.272-1.068 4.991-.083 7.293 1.806 4.228 6.793 6.512 10.928 4.521-3.069 3.204-3.329 8.368-.426 11.874 2.366 2.858 6.78 4.048 9.906 2.175-.013.021-.024.043-.032.057-.615 1.146-.876 2.467-.79 3.761.143 2.317 1.32 4.509 3.065 6.018 1.93 1.67 4.567 2.511 7.087 1.882a6.95 6.95 0 0 0 3.017-1.624 6.508 6.508 0 0 0 1.113-1.335c.021-.033.054-.078.091-.133-.259 4.052 4.716 7.285 7.718 9.012l2.678 1.527c.372.221.492.056.486-.257a.563.563 0 0 0 .045.259c.063.12.197.143.441-.002.884-.525 1.787-1.014 2.678-1.527 3.003-1.727 7.977-4.96 7.718-9.012l.091.133a6.48 6.48 0 0 0 1.113 1.335 6.95 6.95 0 0 0 3.017 1.624c2.519.63 5.156-.212 7.087-1.882 1.745-1.509 2.92-3.701 3.065-6.018a7.015 7.015 0 0 0-.79-3.761c-.008-.015-.019-.036-.033-.057 3.126 1.874 7.54.683 9.907-2.175 2.903-3.506 2.643-8.67-.426-11.874 4.134 1.991 9.121-.293 10.927-4.521.984-2.303 1.005-5.022-.083-7.293a7.98 7.98 0 0 0-2.175-2.759 8.23 8.23 0 0 0-.594-.431c1.78.322 3.656-.006 5.207-1 2.173-1.374 3.477-3.807 3.827-6.311.704-5.051-2.959-10.23-8.218-9.922 1.903-.94 3.471-2.589 4.06-4.657.702-2.46-.136-5.087-1.838-6.937-3.243-3.521-9.34-3.82-12.273.279.017.44.447.07.698-.045a11.604 11.604 0 0 1 1.561-.599c1.068-.318 2.199-.438 3.307-.3a7.83 7.83 0 0 1 4.876 2.584c1.34 1.526 1.919 3.568 1.356 5.543-.309 1.076-.893 2.054-1.573 2.935-.154.199-1.381 1.441-1.078 1.55 1.824.645 3.565 1.55 4.746 3.133 1.188 1.594 1.659 3.623 1.505 5.589-.155 1.949-.93 3.911-2.382 5.258-1.472 1.383-3.455 1.856-5.418 1.97-.356.02-.442-.036-.387.263.387.411.759.838 1.099 1.287.665.882 1.199 1.865 1.512 2.927.627 2.115.357 4.437-.705 6.366a7.97 7.97 0 0 1-4.455 3.73c-1.09.361-2.236.485-3.381.484-.31-.001-.992-.168-1.267-.04-.211.098.167.661.201.74.91 2.08 1.477 4.345 1.003 6.61a8.2 8.2 0 0 1-3.241 4.963 7.63 7.63 0 0 1-5.93 1.304 11.722 11.722 0 0 1-1.829-.535c-.103-.039-.589-.3-.476.045.319.989.541 2.012.523 3.057-.077 4.368-4.171 7.974-8.503 7.568-1.138-.107-2.221-.468-3.28-.879-.16-.063-.62-.398-.729-.163a8.44 8.44 0 0 1-.626 1.114c-1.209 1.797-3.161 2.908-4.933 4.071-1.737 1.141-3.53 2.356-4.465 4.286a7.1 7.1 0 0 0-.439 1.334 2.03 2.03 0 0 0-.045.361c-.011-.526-.371-1.461-.484-1.695-.934-1.93-2.727-3.145-4.465-4.286-1.773-1.162-3.724-2.273-4.933-4.071a8.552 8.552 0 0 1-.626-1.114c-.109-.234-.569.1-.729.163-1.059.411-2.143.772-3.281.879-4.331.407-8.424-3.2-8.502-7.568-.018-1.045.203-2.068.522-3.057.111-.345-.374-.083-.476-.045-.595.222-1.205.413-1.829.535a7.633 7.633 0 0 1-5.931-1.304 8.2 8.2 0 0 1-3.24-4.963c-.473-2.266.092-4.531 1.003-6.61.034-.078.412-.643.2-.74-.275-.127-.958.039-1.267.04-1.145.002-2.291-.123-3.382-.484a7.97 7.97 0 0 1-4.454-3.73 8.37 8.37 0 0 1-.706-6.366c.315-1.062.848-2.045 1.513-2.927a15.66 15.66 0 0 1 1.099-1.287c.054-.299-.031-.243-.387-.263-1.963-.113-3.946-.587-5.418-1.97-1.452-1.347-2.227-3.309-2.382-5.258-.155-1.965.317-3.994 1.505-5.589 1.179-1.583 2.922-2.488 4.745-3.133.303-.108-.923-1.351-1.078-1.55-.68-.881-1.265-1.859-1.572-2.935-.564-1.975.015-4.017 1.356-5.543a7.83 7.83 0 0 1 4.876-2.584c1.108-.138 2.238-.017 3.307.3.534.159 1.054.366 1.561.599.251.116.681.485.698.045-2.931-4.099-9.029-3.8-12.271-.279zm12.812 5.215a3.302 3.302 0 0 0-5.954 2.854c.788 1.644 7.379 10.672 23.92 3.532-15.152 4.035-17.178-4.742-17.965-6.386zm-3.234-.102c.671 1.441 1.628 2.685 2.795 3.757 1.183 1.081 2.516 1.961 3.884 2.787-3.275.395-7.486-3.028-6.679-6.543zm12.008 32.756a3.581 3.581 0 1 0 .315 7.155c1.975-.087 13.786-2.825 13.695-22.364-2.418 16.834-12.034 15.123-14.01 15.21zm2.903 3.687c-1.156.385-3.51.711-4.143-.73.895.351 1.95.024 2.821-.252a25.464 25.464 0 0 0 2.966-1.162c.641-.293 1.289-.605 1.847-1.039-.209 1.593-2.122 2.729-3.492 3.183zM56.537 47.325a3.637 3.637 0 0 0-5.058.942 3.64 3.64 0 0 0 .943 5.057c1.657 1.136 12.918 6.127 24.776-9.79-12.242 12.188-19.005 4.926-20.661 3.791zm3.952 4.608c-2.372.697-6.094-.506-6.993-2.998 1.249.657 2.591 1.134 3.935 1.557 1.326.411 2.711.84 4.107.898-.297.264-.67.429-1.049.544zm-.151 6.491a3.594 3.594 0 1 0-1.911 6.931c1.915.528 14.042 1.564 19.997-17.127-7.514 15.331-16.171 10.724-18.085 10.196zm6.188 2.561c-1.319 1.024-3.142 1.42-4.786 1.301-1.312-.096-3.145-.624-3.609-2.035 1.317.844 3.084.777 4.583.677 1.558-.113 3.252-.289 4.687-.95-.198.404-.525.731-.874 1.008zm60.943-7.66a3.64 3.64 0 0 0 .942-5.057 3.64 3.64 0 0 0-5.057-.942c-1.657 1.135-8.419 8.397-20.662-3.791 11.859 15.918 23.12 10.927 24.777 9.79zm-4.951-2.832c1.343-.424 2.685-.901 3.934-1.557-.529 1.468-2.114 2.41-3.526 2.856-1.357.427-3.359.632-4.516-.402 1.396-.056 2.783-.486 4.108-.897zm-1.053 14.862a3.595 3.595 0 0 0-1.911-6.931c-1.913.528-10.572 5.135-18.086-10.196 5.955 18.691 18.083 17.655 19.997 17.127zm-4.23-4.428c1.499.1 3.266.168 4.583-.677-.583 1.769-3.107 2.14-4.676 2.036-1.596-.11-3.826-.739-4.594-2.31 1.435.662 3.129.838 4.687.95zm10.927-22.531a3.302 3.302 0 1 0-5.955-2.854c-.788 1.644-2.813 10.42-17.965 6.386 16.54 7.141 23.131-1.888 23.92-3.532zm-3.906-.883a10.9 10.9 0 0 0 1.242-2.072c.808 3.515-3.404 6.937-6.679 6.543 2.014-1.215 3.997-2.579 5.437-4.471zm-16.271 41.859c.522-1.916-.608-3.892-2.523-4.413s-11.711-.975-10.357-17.994c-4.411 19.115 6.55 24.409 8.467 24.93s3.891-.606 4.413-2.523zm-8.657-5.082c1.123.634 2.213 1.332 3.296 2.032l3.247 2.057c-2.523.713-5.94-1.623-6.543-4.089zm17.523-2.359a3.58 3.58 0 0 0-3.42-3.734c-1.975-.087-11.592 1.624-14.01-15.21-.091 19.539 11.72 22.277 13.695 22.364a3.58 3.58 0 0 0 3.735-3.42zm-6.507-.133c-1.289-.485-3.049-1.586-3.248-3.097.931.722 2.102 1.177 3.188 1.611s2.243.901 3.418.982c.351.021.698-.012 1.028-.14-.671 1.528-3.197 1.087-4.386.644zM90.995 11.227c.995-.188 2.373.223 2.474.234.075-2.041.659-4.461 2.733-5.249 1.283-.536 2.789-.446 3.864.5.589.518 1.063 1.251 1.006 2.06-.051.721-.534 1.401-1.178 1.719-.498.245-1.364.01-1.553-.494-.184-.292-.187-.78.097-1.013-.068.057-.024.318.001.386.096.266.378.41.648.398.32-.013.55-.309.589-.594.087-.64-.591-1.071-1.204-.917-.877.221-1.315 1.245-.994 2.057.334.843 1.178 1.416 2.08 1.441 1.978.06 3.343-2.138 3.066-3.933-.283-1.943-2.067-3.462-3.908-3.878-2.68-.604-5.436.86-6.683 3.252-.648 1.238-.95 2.623-1.037 4.032zm6.667 77.975c-5.692 1.948-7.413-3.711-7.716-4.943l-.037-.156h-.016c-.174.787-1.772 7.147-7.753 5.099 0 0-.682 2.215 1.499 2.453 0 0-.818 2.181 1.09 2.318 0 0-.204 1.806 1.636 1.499 0 0-.103 1.704 1.669 1.261 0 0-.44 1.56 1.858 2.617v.007l.017-.007.037-.018c2.254-1.056 1.821-2.599 1.821-2.599 1.772.443 1.669-1.261 1.669-1.261 1.841.308 1.635-1.499 1.635-1.499 1.908-.138 1.09-2.318 1.09-2.318 2.181-.237 1.5-2.453 1.5-2.453zm-3.774 1.261c-1.005-.163-1.926-.724-2.615-1.461.591 1.51 1.279 3.496 3.147 3.689-1.576.688-2.864-.912-3.404-2.183.246 1.613.638 3.173 1.632 4.5-1.13-.547-1.803-1.721-2.14-2.884l-.141 2.776c-.038.571-.232 1.342-.036 1.879-.2-.234-.314-.577-.385-.943v-.001c-.095-.484-.115-1.01-.15-1.394a26.2 26.2 0 0 1-.092-2.506c-.427 1.155-1.261 2.519-2.403 3.072.993-1.327 1.386-2.886 1.631-4.5-.536 1.272-1.829 2.871-3.404 2.183 1.869-.193 2.555-2.181 3.148-3.689-1.044 1.114-3.08 2.128-4.511 1.099 1.512.113 2.916-.715 4.015-1.68.717-.631 1.591-1.596 1.743-2.593l.021.081c.24.929 1.15 1.921 1.822 2.512 1.098.966 2.503 1.793 4.015 1.68-.538.388-1.254.466-1.895.363zm1.11-71.374c1.555 0 2.816-1.378 2.816-3.077s-1.261-3.078-2.816-3.078a24.515 24.515 0 0 0-5.053-.541 24.44 24.44 0 0 0-5.144.541c-1.555 0-2.816 1.377-2.816 3.078s1.261 3.077 2.816 3.077a28.6 28.6 0 0 1 5.144-.467c1.666.003 3.331.157 5.053.467zm-1.089 34.396c-.213.955-.227 1.934-.545 2.862-.1.29.375.495.498.212.748-1.721 2.347-2.971 2.98-4.726.507-1.407.129-2.733-.188-4.086.643.656 1.566.97 2.685.662 1.784-.492 1.844-2.869 1.638-4.33-.029-.2-.331-.262-.456-.12-.513.588-1.103 1.012-1.844 1.268-.377.132-.771.152-1.164.138-.188-.009-1.298-.254-1.298-.497 0-.352-.545-.352-.545 0v.102c0 .054.016.098.037.135a.25.25 0 0 0-.037.139 4.3 4.3 0 0 0 .183 1.117l.079.511c-.053 1.58-.306 3.026-1.01 4.503-.314.661-.854 1.397-1.013 2.11zm5.787 32.313c.788-1.849.04-4.326-1.919-4.773-3.932-.895-7.22-4.096-7.832-17.727l-.029-.697h-.034c-.53 14.22-3.862 17.514-7.859 18.425-1.959.446-2.708 2.924-1.92 4.773s2.892 2.625 4.773 1.919c3.961-1.487 4.893-7.245 5.022-21.848l.045 3.173c.245 12.275 1.318 17.3 4.977 18.675 1.882.705 3.986-.073 4.775-1.92zm-12.733-4.043c-.788 1.594-3.249 3.611-5.114 2.486 2.132-.725 4.142-2.724 5.452-4.498.149.684-.04 1.396-.339 2.012zm5.685-2.012c.712.963 1.586 1.811 2.487 2.595.884.766 1.846 1.521 2.965 1.904-2.396 1.446-5.984-2.069-5.452-4.498zm14.469-49.225c-5.176 3.276-12.673-1.495-14.669-8.015-.113-.039-.321-.027-.321.114.008 12.451 7.905 18.128 14.196 16.847.235-.048.5-.27.263-.455a8.92 8.92 0 0 1-1.437-1.416c3.879 1.789 7.969 2.06 10.831-.883.128-.132.207-.382 0-.471-.566-.252-1.159-.428-1.723-.668 3.904.539 7.529-2.367 7.312-6.731-.011-.219-.3-.385-.466-.191-.63.733-1.203 1.125-2.04 1.194 2.225-2.371 2.195-6.17-.482-8.282-.144-.114-.414-.105-.455.119-.237 1.252-1.003 2.563-2.375 2.545 1.183-4.199-2.497-7.88-6.995-6.017-.228.095-.351.272-.194.465 3.383 4.149 2.925 9.079-1.445 11.845zm5.409-3.984c.894-2.245.576-4.484.023-6.768.97 1.775 1.6 3.804 1.292 5.839-.286 1.886-1.138 3.649-2.491 5.002-2.71 2.709-6.961 3.492-10.556 2.32 3.345 1.468 7.151 1.284 10.433-.262 3.206-1.51 5.553-3.907 6.912-7.173-.303 2.38-1.43 4.402-3.138 6.058-2.656 2.551-6.351 4.016-10.047 3.652-3.718-.365-6.614-2.542-8.761-5.485 3.398 2.787 8.45 3.406 12.348 1.298a8.75 8.75 0 0 0 3.985-4.482zm-9.742-2.862c.615.977 2.699.994 2.518-.487-.049-.399-.42-.747-.826-.681-.394.063-.628.534-.481.907a.643.643 0 0 0 .221.285c-.422-.015-.701-.393-.726-.819-.042-.701.405-1.056.952-1.272 1.143-.242 2.091.416 2.446 1.451a3.465 3.465 0 0 1-1.154 3.518c-2.294 1.916-5.077.462-6.867-1.351-1.534-1.554-2.722-3.442-3.613-5.434-1.35-.339-1.9-.501-2.88-.251a21.6 21.6 0 0 0 1.838 3.752c1.412 2.282 3.278 4.542 5.73 5.749 2.437 1.2 5.459.904 7.385-1.114 1.748-1.832 2.244-5.348.004-7.036-.987-.745-2.399-.943-3.526-.399s-1.717 2.077-1.021 3.181zm36.324 40.279a2.046 2.046 0 1 0-.001-4.091 2.046 2.046 0 0 0 .001 4.091zm-36.167 41.983a2.045 2.045 0 1 0-.001-4.09 2.045 2.045 0 0 0 .001 4.09zm27.761-24.899a2.046 2.046 0 1 0-.001-4.091 2.046 2.046 0 0 0 .001 4.091zm-11.041 14.176a2.044 2.044 0 1 0 0-4.088 2.044 2.044 0 0 0 0 4.088zm-2.72 12.251a4.59 4.59 0 0 1-.318-.748l.424 1.435c.126-.06.178-.19.05-.345a3.026 3.026 0 0 0-.186-.203c.02-.04.055-.091.03-.139zM120.488.64c-.942 1.248-1.94 2.499-2.616 3.911-1.142 2.38-1.968 4.745-1.68 7.425.252 2.343 1.577 4.528 3.435 5.952 2.49 1.91 4.64 3.644 4.91 6.994.026.314.425.362.536.072.804-2.104 1.917-3.969 1.585-6.314-.356-2.518-1.793-4.378-2.98-6.546-1.32-2.407-2.347-5.128-2.136-7.922.029-.389.487-3.132.939-4.209h-12.104l-.161.248a.29.29 0 0 0 .043.329c3.238 3.851 7.231 2.474 10.229.061zm1.088 10.808c.664 1.147 1.467 2.207 2.236 3.284.663.929 1.549 1.943 1.763 3.096.068.374.07.764-.077 1.12-.28-1.329-1.72-2.125-2.643-2.985-1.053-.993-2.037-2.071-2.786-3.317-1.587-2.683-1.527-5.847-.022-8.556.118 2.592.198 5.052 1.529 7.358zM153.132.001h-2.982a5.57 5.57 0 0 0 2.982 0zm-.221 6.754c3.742-.508 7.069-2.404 8.518-5.754a6.99 6.99 0 0 0 .346-1h-1.516c-.834 1.938-2.572 3.514-4.621 4.192-3.501 1.158-7.835-.045-9.693-3.374 1.401.873 2.796 1.542 4.43 1.845 2.379.415 4.933.015 6.919-1.41a7.35 7.35 0 0 0 1.34-1.252h-2.246c-2.405 2.105-6.48 2.165-9.222 0h-4.784a10.05 10.05 0 0 0 1.28 2.257c2.199 2.93 5.561 4.995 9.249 4.496zM136.26 19.833c8.456 1.44 17.175 4.498 13.55 14.286-.05.133.057.305.19.335 2.47.548 5.167-.643 6.643-2.676 1.809-2.488 1.376-5.755.649-8.605 4.22 3.182 13.046.614 12.198-11.964-.093-1.375-.54-3.152.343-4.377 1.141-1.581 3.403-1.347 4.375.239.691 1.128.974 2.798-.871 2.675-.238-.015-.269.251-.193.467.602 1.715 3.031 1.617 4.01.488 5.905-6.811-3.957-11.987-7.224-9.814a3.32 3.32 0 0 0 .539-.884h-1.321a12.1 12.1 0 0 1 .026.939c-.027 2.709-.749 5.416-2.118 7.757-2.836 4.847-8.248 7.556-13.83 7.02 2.83 1.152 6.043 2.255 9.082 1.239 2.629-.879 4.513-3.161 5.583-5.641.2 3.578-2.493 6.894-5.922 7.707-1.836.435-3.767.169-5.501-.538a12.205 12.205 0 0 1-2.492-1.387c-.596-.427-1.342-1.428-2.033-1.556.43-.045.025-.226-.136-.41l.792.329c4.983-.638 9.638-2.814 12.441-7.127 1.404-2.164 2.266-4.658 2.591-7.213A23.07 23.07 0 0 0 167.744 0h-2.989c.382 4.688-1.953 9.93-9.411 13.015-5.466 2.264-28.298 4.062-29.504-13.014h-3.185c-.761 10.467 6.026 18.541 13.605 19.831zm40.422-17.648c1.867 1.378 2.586 4.713-.068 5.722.472-1.138.633-2.281-.162-3.32-.724-.946-1.881-1.575-3.041-1.795-.889-.174-1.8-.064-2.659.207 1.101-2.183 4.194-2.078 5.93-.815zm-32.474 13.333c3.879.961 7.707 2.866 9.426 6.689 1.07 2.364 1.541 5.932-.329 8.054.988-2.357.242-5.252-1.003-7.365-1.291-2.181-3.329-3.648-5.648-4.598-2.503-1.052-5.111-1.554-7.785-1.926-2.582-.36-5.342-.826-7.373-2.603 4.031 1.727 8.528.713 12.712 1.749zm-.727 7.624c-2.437-1.075-4.999-.94-7.581-1.287-1.396-.188-2.563-.607-3.8-1.248-.835-.432-2.613-1.158-2.747-2.228-.043-.344-.502.228-.465.336-1.216 2.889-.398 7.797 7.026 8.468 2.644.239 5.311-.297 7.772.976 1.857.961 4.23 2.601 4.204 4.94-.002.318.442.359.536.073 1.465-4.423-.844-8.221-4.945-10.031zm-.694 2.62c-1.493-.651-2.994-.907-4.611-.999-2.72-.156-5.929-.61-7.089-3.497 1.836 1.383 3.847 1.61 6.074 1.599 2.288-.012 4.438.252 6.361 1.596 1.229.862 2.239 1.97 3.241 3.075-1.392-.437-2.64-1.204-3.976-1.774zm-3.634 16.969a2.045 2.045 0 1 0 0-4.09 2.045 2.045 0 0 0 0 4.09zm10.959-33.394c-6.643-2.288-9.901-5.652-10.946-9.335h-2.938c.051.446.123.89.221 1.332.397 1.784 1.199 3.462 2.379 4.86 1.155 1.37 2.646 2.207 4.254 2.94-3.511-.036-6.381-2.234-7.807-5.37a11.148 11.148 0 0 1-.949-3.763h-2.212c-.374 1.419-.43 2.858.063 4.227-1.334-1.016-1.711-2.603-1.584-4.227h-2.625c1.294 11.671 17.244 16.173 22.144 9.335z"/></g><defs><path id="a" d="M40.783 63.95a2.044 2.044 0 1 0 0-4.088 2.044 2.044 0 0 0 0 4.088z"/></defs></svg>