<svg width="30" height="30" fill="none" xmlns="http://www.w3.org/2000/svg"><path d="M6.942 16.215c2.378.918 4.563-2.019 2.832-3.59-1.377 3.59-4.06 1.481-2.865-.87 1.124-2.211 3.37-2.242 4.859-1.357.61.364 1.611 1.27 1.977 2.678.188-.023.374.01.559 0-.238-1.338-.968-2.477-2.245-3.272-2.64-1.65-4.908-1.073-6.295.505-1.812 1.972-4.115.167-3.469-.505.637.64 1.63-.234 1.494-.959-.201-1.086-1.114-1.374-2.056-1.28C.493 7.684-.52 9.65.292 11.056c.76 1.32 2.845 2.284 4.829.911-.674 1.569-.196 3.468 1.82 4.247Z" fill="#673B16"/><path d="M13.398 17.643c.38-.61.675-1.247.835-1.971-.173-.017-.341.03-.504 0-.143.543-.403.993-.784 1.581-2.195 3.4-6.47 2.183-6.529-.355-.92.634-1.202 2.592-.337 3.55.898.992 4.468 1.811 7.319-2.805ZM13.809 11.119c-.845-3.02-3.02-4.674-4.467-5.367 2.517.29 4.089 3.02 4.566 4.13.034.067.092.054.085.01-.589-3.805-2.238-5.668-3.564-6.4-1.844-1.015-3.28.301-3.101 1.04-2.17-.735-3.794 2.034-1.738 3.646.02.016.038.032.051.016 1.141-1.227 5.425-1.042 8.081 2.956.027.059.118.042.087-.031ZM.985 15.71c-.263.671.078 1.419.757 1.674a1.322 1.322 0 0 0 1.701-.744c.26-.67.027-1.834.46-3.386-1.275.427-2.659 1.787-2.918 2.457ZM23.055 16.215c-2.378.918-4.567-2.019-2.832-3.59 1.377 3.59 4.062 1.481 2.865-.87-1.124-2.211-3.374-2.242-4.863-1.357-.61.364-1.611 1.27-1.977 2.678-.188-.023-.374.01-.559 0 .238-1.338.968-2.477 2.245-3.272 2.641-1.65 4.911-1.073 6.298.505 1.816 1.972 4.116.167 3.473-.505-.637.64-1.63-.234-1.497-.959.201-1.086 1.114-1.374 2.059-1.28 1.24.12 2.253 2.085 1.442 3.492-.76 1.32-2.846 2.284-4.83.911.67 1.569.193 3.468-1.824 4.247Z" fill="#673B16"/><path d="M16.594 17.643c-.378-.61-.675-1.247-.835-1.971.173-.017.341.03.504 0 .143.543.402.993.783 1.581 2.195 3.4 6.474 2.183 6.533-.355.92.634 1.205 2.592.337 3.55-.896.992-4.467 1.811-7.322-2.805ZM16.185 11.119c.845-3.02 3.023-4.674 4.47-5.367-2.521.29-4.093 3.02-4.57 4.13-.033.067-.091.054-.085.01.589-3.805 2.239-5.668 3.567-6.4 1.845-1.015 3.282.301 3.102 1.04 2.174-.735 3.797 2.034 1.738 3.646-.023.016-.038.032-.052.016-1.14-1.227-5.425-1.042-8.084 2.956-.028.059-.118.042-.086-.031ZM29.015 15.71c.26.671-.078 1.419-.757 1.674a1.325 1.325 0 0 1-1.704-.744c-.26-.67-.024-1.834-.46-3.386 1.275.427 2.662 1.787 2.921 2.457ZM13.727 3.815c-.075.926 1.137 6.252 1.27 6.55.153-.355 1.35-5.624 1.274-6.55-.068-.85-1.12-3.58-1.274-3.815-.162.258-1.202 2.966-1.27 3.815Z" fill="#673B16"/><path d="M20.489 21.896c-.02-.105-.085-.172-.188-.154-2.576.466-4.638-2.588-5.22-4.76-.045-.15-.117-.134-.167 0-.582 2.172-2.644 5.226-5.22 4.76-.103-.02-.17.048-.188.154-.367 1.924 2.267 3.546 4.23 2.176-1.19 1.524-.666 2.424-.157 3.198.106.163 1.13 2.182 1.387 2.715.02.02.041.02.061 0 .256-.533 1.28-2.553 1.387-2.715.51-.774 1.033-1.674-.156-3.198 1.964 1.37 4.598-.252 4.23-2.176ZM12.398 14.351c0 .56.46 1.01 1.03 1.01h3.141c.569 0 1.026-.45 1.026-1.01 0-.559-.457-1.012-1.026-1.012h-3.141c-.57 0-1.03.455-1.03 1.012Z" fill="#673B16"/></svg>