<svg width="40" height="40" fill="none" xmlns="http://www.w3.org/2000/svg"><mask id="a" style="mask-type:alpha" maskUnits="userSpaceOnUse" x="0" y="0" width="40" height="40"><path d="M20 39.756C9.107 39.756.246 30.895.246 20.002.246 9.11 9.107.25 20 .25c10.892 0 19.754 8.86 19.754 19.753S30.893 39.756 20 39.756Z" fill="#fff"/></mask><g mask="url(#a)"><path d="M28.736 23.94a.243.243 0 0 1-.182-.081.244.244 0 0 1-.06-.207l.917-5.37a.247.247 0 0 1 .166-.194c.674-.218 1.454-.113 1.94.267.428.329.653.859.655 1.53.007 1.549-.996 3.039-2.553 3.797-.226.109-.527.236-.869.255-.003.004-.007.004-.014.004Zm1.134-5.421-.831 4.87a2.49 2.49 0 0 0 .363-.147c1.389-.675 2.283-1.992 2.279-3.352-.002-.522-.159-.907-.464-1.145-.327-.255-.863-.34-1.347-.226ZM12.232 23.94c-.007 0-.011 0-.016-.002-.342-.02-.643-.147-.868-.255-1.556-.758-2.56-2.245-2.553-3.796.002-.67.227-1.202.654-1.531.487-.38 1.267-.486 1.94-.267a.244.244 0 0 1 .167.194l.918 5.37a.248.248 0 0 1-.242.288Zm-1.566-5.471c-.348 0-.684.095-.915.275-.305.238-.462.623-.464 1.145-.004 1.36.89 2.677 2.279 3.352.11.052.231.108.363.147l-.831-4.87a1.946 1.946 0 0 0-.432-.05Z" fill="#532E0B"/><path d="M20.541 8.17c2.986 0 7.805 1.249 8.37 6.384.216 1.968.364 3.958.189 5.932-.173 1.974-.728 3.956-1.895 5.559-1.495 2.056-4.12 4.176-6.664 4.176-1.986 0-4.576-1.42-6.78-4.176-1.239-1.548-1.72-3.584-1.895-5.56-.175-1.972-.028-3.962.189-5.931.565-5.135 5.537-6.385 8.486-6.385Zm0-.493c-.911 0-3.263.13-5.382 1.33-2.086 1.184-3.33 3.083-3.595 5.491-.2 1.8-.377 3.924-.188 6.03.22 2.514.875 4.417 2 5.823 1.086 1.356 2.333 2.475 3.605 3.235 1.232.737 2.462 1.127 3.56 1.127 1.265 0 2.649-.486 4.002-1.404a12.699 12.699 0 0 0 3.06-2.978c1.113-1.529 1.782-3.483 1.988-5.803.186-2.101.009-4.226-.19-6.03-.144-1.288-.55-2.427-1.212-3.39-.58-.842-1.358-1.547-2.308-2.1-1.463-.845-3.41-1.33-5.34-1.33Z" fill="#532E0B"/><path d="M37.829 49.874H3.482c-.34 0-.668-.178-.977-.532-.92-1.052-1.462-3.419-1.33-4.405l.117-.861c.134-.984.26-1.913.386-2.91.286-2.284.704-4.602 2.369-5.679 1.507-.974 3.374-1.193 5.18-1.403 2.05-.241 4.17-.487 5.762-1.843.855-.725 1.48-1.847 1.716-3.077a2.331 2.331 0 0 1 2.285-1.888h3.333c1.113 0 2.074.795 2.283 1.888.236 1.23.861 2.352 1.717 3.077 1.588 1.351 3.872 1.615 6.079 1.871 1.933.223 3.76.434 4.89 1.395 1.64 1.393 2.121 3.896 2.342 5.66.125.995.252 1.924.386 2.908l.115.863c.134.986-.409 3.352-1.33 4.406-.309.352-.636.53-.976.53Zm-18.84-22.107c-.877 0-1.636.628-1.8 1.49-.257 1.338-.942 2.563-1.881 3.36-1.707 1.452-3.903 1.707-6.025 1.957-1.83.211-3.558.413-4.97 1.327-1.488.961-1.875 3.158-2.149 5.325-.125 1-.251 1.932-.386 2.917l-.116.86c-.115.857.405 3.09 1.213 4.015.212.242.416.363.607.363H37.83c.19 0 .394-.12.604-.363.81-.925 1.33-3.158 1.213-4.015l-.116-.862c-.132-.985-.26-1.915-.384-2.915-.211-1.68-.667-4.062-2.174-5.344-1.016-.864-2.77-1.066-4.628-1.28-2.174-.253-4.639-.536-6.343-1.983-.938-.8-1.622-2.023-1.88-3.36a1.837 1.837 0 0 0-1.8-1.491H18.99v-.001Z" fill="#532E0B"/><path d="M20.713 30.466c-.107 0-.178-.005-.209-.01-.17 0-3.585-.067-6.85-4.316a.232.232 0 0 1-.038-.075c-.03-.093-.707-2.304-.334-5.942a.244.244 0 0 1 .18-.212c.036-.009 3.534-.952 6.993-1.331h.053c3.463.379 6.96 1.322 6.995 1.331.098.026.169.111.18.212.374 3.636-.303 5.962-.332 6.06a.24.24 0 0 1-.039.075c-2.89 3.904-5.783 4.208-6.6 4.208Z" fill="#663B17"/><path d="M20.483 18.824c3.483.381 6.956 1.325 6.956 1.325.372 3.626-.323 5.964-.323 5.964-2.837 3.828-5.65 4.105-6.403 4.105a2.3 2.3 0 0 1-.197-.006h-.01c-.195 0-3.462-.066-6.656-4.221 0 0-.696-2.216-.323-5.843 0 0 3.474-.943 6.956-1.324Zm0-.492c-.017 0-.036 0-.054.003-3.48.381-6.995 1.33-7.03 1.338a.494.494 0 0 0-.361.425c-.38 3.687.312 5.946.343 6.041a.49.49 0 0 0 .08.155c1.383 1.799 2.947 3.085 4.646 3.82 1.273.55 2.186.588 2.386.59.041.002.116.009.219.009.847 0 3.84-.312 6.798-4.308a.494.494 0 0 0 .077-.151c.028-.1.719-2.472.34-6.158a.493.493 0 0 0-.359-.424c-.036-.009-3.551-.957-7.034-1.338-.016-.002-.034-.002-.05-.002Z" fill="#532E0B"/><path d="M27.777 20.24a.242.242 0 0 1-.173-.071.248.248 0 0 1 0-.349c.197-.197.398-.406.593-.61.486-.505.94-.982 1.273-1.194a.246.246 0 1 1 .265.414c-.282.182-.718.637-1.182 1.12-.195.206-.398.418-.6.62a.258.258 0 0 1-.176.07ZM13.313 20.24a.251.251 0 0 1-.175-.071c-.585-.585-1.191-1.1-1.85-1.575a.247.247 0 0 1 .286-.401 15.242 15.242 0 0 1 1.913 1.626.244.244 0 0 1 0 .348.244.244 0 0 1-.174.072ZM26.213 22.118c-.013 0-.023 0-.034-.005-3.974-.968-8.016-1.006-11.387-.11a.147.147 0 0 1-.182-.105.149.149 0 0 1 .107-.181c3.417-.907 7.512-.869 11.53.11.079.02.128.1.11.178a.149.149 0 0 1-.143.113ZM26.213 24.768c-.008 0-.02 0-.027-.003-3.584-.7-7.417-1.204-11.185-.166a.147.147 0 0 1-.182-.102.146.146 0 0 1 .102-.182c3.828-1.054 7.702-.545 11.321.161.08.016.132.093.117.173a.149.149 0 0 1-.146.119ZM25.344 27.25c-.009 0-.018 0-.025-.002-2.815-.5-6.124-.916-9.323-.225a.147.147 0 0 1-.175-.113.148.148 0 0 1 .113-.178c3.249-.701 6.594-.279 9.438.226.08.013.134.09.119.17a.148.148 0 0 1-.147.122Z" fill="#532E0B"/><path d="M15.245 11.313c2.646 2.892 8.633 2.876 10.385 3.23 1.993.405 3.979 1.828 3.72 5.915 1.007-1.8 1.754-3.742 1.904-5.072.364-3.2-1.038-6.632-3.478-8.736-2.438-2.102-6.29-3.435-9.33-2.374-1.537.537-4.146 2.15-4.428 3.754-2.926 1.02-4.305 2.172-4.734 4.605-.336 1.913 1.054 6.503 2.34 8.323 0-1.143-.06-2.086.026-2.988.188-1.98 1.6-1.88 2.488-2.465.963-.63 1.04-3.163 1.107-4.192Z" fill="#663B17"/><path d="M11.625 21.203a.247.247 0 0 1-.201-.104c-.635-.9-1.313-2.467-1.813-4.2-.525-1.81-.732-3.38-.57-4.305.416-2.367 1.713-3.664 4.766-4.75.232-.925 1.098-1.748 1.804-2.287.825-.627 1.88-1.208 2.755-1.511 3.308-1.154 7.28.443 9.572 2.42 2.531 2.182 3.93 5.695 3.56 8.95-.15 1.32-.89 3.3-1.934 5.162a.245.245 0 0 1-.286.116.246.246 0 0 1-.175-.252c.206-3.237-.98-5.141-3.524-5.657-.342-.07-.877-.127-1.494-.195-2.415-.257-6.362-.682-8.63-2.722-.08 1.256-.262 3.24-1.182 3.844-.25.162-.53.275-.804.384-.745.297-1.449.577-1.574 1.897-.059.613-.048 1.239-.034 1.963.004.32.01.65.01 1.002a.245.245 0 0 1-.246.245Zm9.136-17.036c-.84 0-1.6.123-2.233.342-1.584.553-4.015 2.14-4.267 3.565a.241.241 0 0 1-.16.189c-2.987 1.04-4.184 2.197-4.574 4.417-.254 1.442.627 5.16 1.842 7.395 0-.036 0-.073-.002-.11-.011-.709-.023-1.378.039-2.016.154-1.62 1.11-2.002 1.88-2.309.26-.104.508-.202.718-.34.784-.516.913-2.697.977-3.744.006-.093.01-.18.017-.258a.242.242 0 0 1 .162-.216.246.246 0 0 1 .264.068c2.05 2.24 6.22 2.688 8.712 2.954.656.07 1.176.127 1.542.201 1.776.36 3.817 1.557 3.933 5.128.758-1.52 1.277-3.021 1.397-4.073.352-3.097-.981-6.443-3.394-8.522-2.22-1.915-4.774-2.671-6.853-2.671Z" fill="#532E0B"/><path d="M15.403 11.716a.248.248 0 0 1-.193-.09 6.235 6.235 0 0 0-.134-.165c-.673-.827-1.514-1.856-1.33-3.458a.246.246 0 1 1 .49.057c-.161 1.397.574 2.295 1.221 3.09.048.056.093.113.137.166a.245.245 0 0 1-.191.4Z" fill="#532E0B"/><path d="M10.941 15.116a.147.147 0 0 1-.143-.119 5.236 5.236 0 0 1 .587-3.53 5.232 5.232 0 0 1 2.74-2.302.149.149 0 0 1 .188.089.149.149 0 0 1-.089.188 4.95 4.95 0 0 0-2.583 2.17 4.951 4.951 0 0 0-.552 3.329.148.148 0 0 1-.119.173c-.009.002-.018.002-.029.002Z" fill="#532E0B"/><path d="M12.518 13.073a.148.148 0 0 1-.148-.14c-.034-.63.212-1.284.674-1.796.46-.508 1.088-.818 1.721-.849a.147.147 0 0 1 .155.141.148.148 0 0 1-.141.154c-.552.026-1.107.3-1.516.754-.409.45-.625 1.029-.598 1.581a.149.149 0 0 1-.14.157c-.003-.002-.005-.002-.007-.002ZM30.126 15.564h-.013a.15.15 0 0 1-.134-.161c.24-2.76-.888-5.626-2.943-7.482-2.056-1.856-5.024-2.685-7.743-2.163a.149.149 0 0 1-.173-.119.146.146 0 0 1 .116-.17c2.81-.54 5.875.318 7.998 2.232 2.124 1.917 3.29 4.879 3.04 7.728a.148.148 0 0 1-.148.135Z" fill="#532E0B"/></g><path d="M20 .492c10.774 0 19.51 8.736 19.51 19.51 0 10.774-8.736 19.51-19.51 19.51-10.774 0-19.51-8.736-19.51-19.51C.49 9.228 9.226.492 20 .492ZM20 0c-2.701 0-5.319.529-7.785 1.572a19.927 19.927 0 0 0-6.357 4.286 19.927 19.927 0 0 0-4.286 6.357A19.871 19.871 0 0 0 0 20c0 2.7.529 5.319 1.572 7.785a19.928 19.928 0 0 0 4.286 6.357 19.928 19.928 0 0 0 6.357 4.286A19.872 19.872 0 0 0 20 40c2.7 0 5.319-.529 7.785-1.572a19.929 19.929 0 0 0 6.357-4.286 19.929 19.929 0 0 0 4.286-6.357A19.872 19.872 0 0 0 40 20c0-2.7-.529-5.319-1.572-7.785a19.928 19.928 0 0 0-4.286-6.357 19.928 19.928 0 0 0-6.357-4.286A19.863 19.863 0 0 0 20 0Z" fill="#663B17"/></svg>