<svg width="40" height="41" fill="none" xmlns="http://www.w3.org/2000/svg"><mask id="a" style="mask-type:alpha" maskUnits="userSpaceOnUse" x="0" y="0" width="40" height="40"><path d="M20 39.757C9.107 39.757.246 30.896.246 20.003.246 9.111 9.107.247 20 .247c10.892 0 19.754 8.864 19.754 19.756 0 10.893-8.861 19.754-19.754 19.754Z" fill="#fff"/></mask><g mask="url(#a)"><path d="M16.017 15.856a.246.246 0 0 1-.245-.248v-4.573h-1.754a.248.248 0 0 1-.247-.248V9.175c0-.134.11-.245.247-.245h18.9c.133 0 .244.111.244.245v1.614c0 .136-.11.247-.245.247H20.336v4.573c0 .137-.11.248-.247.248h-4.072Z" fill="#673B16"/><path d="M32.918 9.175v1.614H20.09v4.82h-4.072v-4.82H14.02V9.175h18.9Zm0-.49H14.02a.493.493 0 0 0-.493.49v1.614c0 .272.22.493.493.493h1.507v4.326c0 .273.22.492.491.492h4.072a.49.49 0 0 0 .49-.492v-4.326h12.338c.27 0 .491-.22.491-.493V9.175a.49.49 0 0 0-.49-.49Z" fill="#532E0B"/><path d="M20.995 15.61c.602 0 1.088.486 1.088 1.088v5.35c0 .601-.486 1.088-1.088 1.088h-5.35a1.088 1.088 0 0 1-1.088-1.089v-5.349c0-.602.487-1.088 1.089-1.088h5.349Zm0-.493h-5.35c-.872 0-1.58.709-1.58 1.581v5.35c0 .872.708 1.58 1.58 1.58h5.35c.87 0 1.58-.708 1.58-1.58v-5.35a1.584 1.584 0 0 0-1.58-1.58Z" fill="#532E0B"/><path d="M17.24 62.929c-2.316 0-4.438-.007-5.036-.026-1.033-.03-2.2-.068-3.2-.617-1.909-1.046-2.153-3.118-2.153-4.808-.022-2.638-.054-5.224-.086-7.727-.094-7.421-.18-14.432 0-21.805.015-.715.036-1.605.385-2.38.537-1.206 1.748-1.788 2.918-2.351.17-.082.34-.162.504-.245.83-.416 1.793-.8 2.645-1.137.266-.106.526-.21.772-.311a.255.255 0 0 1 .091-.018h8.327c.023 0 .048.004.071.01 1.104.335 2.127.796 3.027 1.203l.55.247.113.05c1.52.673 2.72 1.204 3.322 2.553.345.771.366 1.627.386 2.38.18 7.395.09 14.427-.002 21.873-.033 2.479-.064 5.046-.087 7.659 0 3.215-1.15 4.26-2.152 4.808-1 .55-2.168.586-3.199.617-.397.012-3.984.025-7.197.025Zm-3.111-40.933c-.236.096-.481.195-.732.295-.842.336-1.795.715-2.605 1.12-.169.084-.34.166-.511.25-1.092.524-2.218 1.067-2.684 2.108-.307.684-.325 1.486-.342 2.192-.18 7.364-.091 14.369.002 21.788.03 2.501.063 5.089.084 7.729 0 2.34.568 3.649 1.897 4.378.897.494 2.004.527 2.978.557 1.427.043 11.524.022 12.204 0 .976-.03 2.08-.063 2.978-.557 1.33-.73 1.897-2.038 1.897-4.376v-.002c.022-2.616.054-5.183.086-7.664.093-7.439.18-14.468.003-21.853-.018-.708-.04-1.509-.345-2.192-.525-1.177-1.593-1.65-3.072-2.304l-.113-.05c-.177-.077-.361-.162-.552-.247-.88-.398-1.873-.847-2.934-1.172H14.13Z" fill="#532E0B"/><path d="m16.258 21.753-.297-.006c.038-2.183.038-4.399.002-6.582l.295-.004c.039 2.187.039 4.405 0 6.592ZM18.53 21.753l-.297-.006c.038-2.181.038-4.397.002-6.582l.295-.004c.039 2.187.039 4.405 0 6.592ZM20.648 21.753l-.298-.006c.04-2.183.04-4.399.003-6.582l.294-.004c.04 2.187.04 4.405 0 6.592Z" fill="#532E0B"/><path d="M24.342 27.316a2.48 2.48 0 0 1 2.229 2.52c-.117 6.085-.182 12.197-.245 18.306-.005.463-.028.972-.34 1.317-.347.384-.923.425-1.441.438-2.701.073-8.243.113-12.454 0-.515-.013-1.093-.054-1.44-.438-.312-.345-.334-.854-.338-1.317-.066-6.107-.128-12.214-.248-18.297a2.486 2.486 0 0 1 2.229-2.52c3.723-.386 8.765-.336 12.048-.01Z" fill="#673B16"/><path d="M30.278 17.372c0-1.89 1.37-3.958 1.638-3.946.247.011 1.581 1.993 1.581 3.946 0 .889-.693 1.607-1.581 1.607-.892 0-1.638-.72-1.638-1.607Z" fill="#663B17"/><path d="M31.915 19.225c-1.04 0-1.882-.832-1.882-1.854 0-1.784 1.116-3.605 1.56-4.03.081-.078.194-.166.333-.162.113.007.255.063.537.448.186.252.383.582.554.934.27.55.723 1.645.723 2.81.001 1.04-.8 1.854-1.825 1.854Zm-.007-5.506c-.355.364-1.384 2.063-1.384 3.653 0 .75.624 1.363 1.39 1.363.748 0 1.335-.6 1.335-1.363 0-1.672-1.007-3.294-1.34-3.653Z" fill="#532E0B"/></g><path d="M20 .493c10.774 0 19.51 8.734 19.51 19.51 0 10.774-8.736 19.508-19.51 19.508C9.226 39.511.49 30.777.49 20.003.49 9.227 9.226.493 20 .493Zm0-.49A19.927 19.927 0 0 0 5.858 5.86a19.926 19.926 0 0 0-4.286 6.357A19.863 19.863 0 0 0 0 20.002c0 2.7.529 5.319 1.572 7.785a19.927 19.927 0 0 0 4.286 6.358 19.928 19.928 0 0 0 6.357 4.285A19.872 19.872 0 0 0 20 40.002c2.7 0 5.319-.529 7.785-1.572a19.929 19.929 0 0 0 6.357-4.285 19.928 19.928 0 0 0 4.286-6.358A19.872 19.872 0 0 0 40 20.002c0-2.7-.529-5.32-1.572-7.784a19.927 19.927 0 0 0-4.286-6.358 19.928 19.928 0 0 0-6.357-4.286A19.844 19.844 0 0 0 20 .002Z" fill="#663B17"/></svg>