<svg width="40" height="41" fill="none" xmlns="http://www.w3.org/2000/svg"><path d="M20 .493c10.774 0 19.51 8.734 19.51 19.51 0 10.774-8.736 19.508-19.51 19.508C9.226 39.511.49 30.777.49 20.003.49 9.227 9.226.493 20 .493ZM20 0A19.933 19.933 0 0 0 5.858 5.86 19.942 19.942 0 0 0 0 20.002c0 2.699.529 5.319 1.572 7.785a19.919 19.919 0 0 0 4.286 6.355A19.934 19.934 0 0 0 20 40.002a19.935 19.935 0 0 0 14.142-5.86 19.92 19.92 0 0 0 4.286-6.355A19.88 19.88 0 0 0 40 20.002 19.943 19.943 0 0 0 34.142 5.86 19.934 19.934 0 0 0 20 0Z" fill="#663B17"/><path d="M29.11 25.386c-.34 0-.67-.18-.863-.47-.19-.291-.218-.641-.08-.966l.604-1.414H11.63l.606 1.414c.139.325.109.675-.082.965-.19.29-.522.47-.861.47a1.02 1.02 0 0 1-.546-.16l-6.964-4.353a1.019 1.019 0 0 1-.483-.87c0-.355.18-.682.483-.871l6.964-4.353a1.04 1.04 0 0 1 .546-.16c.34 0 .67.181.861.471.191.289.221.64.082.964l-.606 1.414h17.14l-.604-1.414a1.003 1.003 0 0 1 .08-.964c.193-.29.522-.472.864-.472.188 0 .377.057.543.16l6.964 4.354c.303.189.484.516.484.87 0 .357-.18.682-.484.87l-6.964 4.354c-.165.106-.354.16-.542.16Z" fill="#663B17"/><path d="M29.11 14.864c.137 0 .278.037.414.121l6.965 4.355a.78.78 0 0 1 0 1.323l-6.965 4.353a.783.783 0 0 1-.413.123c-.516 0-.957-.536-.719-1.093l.754-1.756H11.257l.752 1.756c.239.557-.202 1.093-.716 1.093a.79.79 0 0 1-.416-.123l-6.964-4.353a.78.78 0 0 1 0-1.323l6.964-4.355a.786.786 0 0 1 .416-.12c.515 0 .955.534.716 1.09l-.752 1.757h17.888l-.754-1.757c-.237-.555.204-1.09.72-1.09Zm0-.49c-.422 0-.83.222-1.07.579-.235.36-.272.795-.101 1.198l.459 1.07H12.002l.46-1.073c.172-.4.134-.836-.103-1.195a1.298 1.298 0 0 0-1.067-.58c-.236 0-.47.068-.675.197l-6.965 4.354c-.374.233-.6.636-.6 1.078 0 .443.226.848.6 1.081l6.965 4.354c.206.127.438.197.675.197.422 0 .831-.223 1.067-.582.237-.357.275-.795.102-1.195l-.459-1.073h16.396l-.46 1.073c-.17.4-.133.838.103 1.195.238.359.647.582 1.07.582.234 0 .468-.069.673-.198l6.964-4.353c.375-.233.6-.638.6-1.08 0-.443-.225-.846-.6-1.08l-6.964-4.352a1.262 1.262 0 0 0-.673-.198Z" fill="#532E0B"/></svg>