<svg xmlns="http://www.w3.org/2000/svg" width="81" height="289" fill="#673b16" fill-rule="evenodd"><path d="m61.788 0-5.37 14.767c-5.576 14.361-12.263 28.225-18.956 42.085-8.203 16.987-16.587 33.889-23.863 51.307-4.762 11.399-9.065 22.966-12.073 34.962-1.906 7.6-2.261 15.29.297 22.834.803 2.365 2.173 4.548 3.361 6.772l12.25 22.886c4.247 8.373 5.775 17.393 5.128 26.723-.537 7.735-1.345 15.451-2.08 23.171-.241 2.529.031 4.972.891 7.342 1.855 5.116 5.368 7.394 11.023 7.197a32.805 32.805 0 0 0 2.054-.149l33.583-3.243c4.111-.401 7.838.507 11.078 3.137 1.852 1.504 2.863 3.442 3.167 5.829l2.97 22.532 8.467-.817-.481-8.079-.927-15.023c-.165-2.671.908-4.841 2.719-6.703 2.595-2.67 5.782-4.047 9.471-4.397l33.839-3.275c1.402-.138 2.821-.362 4.168-.764 4.526-1.352 7.049-5.039 7.364-10.209.221-3.645-1.197-6.882-2.131-10.256-2.013-7.267-4.165-14.503-5.874-21.843-2-8.584-1.208-17.166 1.298-25.55 2.393-8.002 4.866-15.989 7.615-23.873 2.208-6.334 2.058-12.581.653-18.995-1.596-7.287-5.249-13.647-8.766-20.063-8.488-15.489-18.729-29.823-29.214-43.989l-33.3-44.962c-6.578-9.002-12.523-18.429-17.73-28.303C62.241.716 62.03.4 61.788 0zM87.56 285.36c-.077-.327-.156-.566-.189-.812l-2.54-19.26c-.38-3.054-1.681-5.545-4.054-7.483-3.758-3.071-8.082-4.184-12.864-3.721l-26.789 2.584c-2.905.279-5.808.621-8.72.781-4.433.241-6.892-1.2-8.378-5.102-.626-1.642-1.007-3.498-.969-5.245.064-2.945.542-5.882.863-8.821.809-7.42 1.52-14.849 1.271-22.328-.291-8.746-2.818-16.896-6.885-24.564l-12.771-23.48c-1.188-2.272-1.988-4.865-2.398-7.403-1.091-6.755-.183-13.392 1.695-19.951 4.412-15.411 10.28-30.272 17.036-44.775l23.477-49.37c5.96-12.548 11.702-25.192 16.334-38.307.187-.53.397-1.051.646-1.71.227.354.351.528.456.713 5.429 9.653 11.54 18.872 18.098 27.782L114.48 80.11c9.139 12.385 17.948 25.004 25.389 38.508 3.572 6.481 7.368 12.869 9.019 20.238 1.331 5.938 1.537 11.726-.546 17.593-2.48 6.982-4.701 14.058-6.877 21.143-2.577 8.387-4 16.929-2.813 25.75.849 6.314 2.463 12.446 4.282 18.529 1.35 4.517 2.9 8.979 4.09 13.534 1.516 5.807-1.316 10.449-6.822 11.618-.711.15-1.441.222-2.167.292l-33.71 3.25c-2.64.253-5.176.863-7.442 2.262-4.318 2.664-7.421 6.13-7.129 11.62l.807 12.971.442 7.61-3.441.332zM17.154 155.202l1.479.796c2.744 1.624 5.706 2.382 8.885 2.713 3.089.322 6.132 1.092 9.193 1.675.313.061.614.191.921.29l.175-.373c-.952-.501-1.855-1.152-2.864-1.472-1.832-.582-3.762-.859-5.584-1.462-2.14-.707-4.28-1.483-6.295-2.481-3.753-1.863-5.335-7.524-4.321-10.821.565-1.836 1.185-3.655 1.776-5.471-4.395 1.318-10.219 8.076-9.692 13.058l1.62-.875.296 3.068-.886-1.776-1.601.795c-.741-2.329.181-4.393.766-6.513-1.165.307-1.936 1.1-2.28 2.638-1.086 4.836-.251 9.234 3.744 12.44 2.283 1.832 4.951 3.195 7.492 4.691 2.91 1.713 5.934 3.24 8.791 5.035 2.254 1.416 3.739 3.62 5.107 5.872.284.467.6.913 1.032 1.565-.419-1.826-.741-3.41-1.178-4.96-.08-.282-.634-.43-1.074-.706l1.602-1.973-2.181-.14-.233.951-5.344-3.778c1.588.138 1.566-.761 1.415-1.852-.822-.095-1.726-.616-2.106.79-.568-.849-1.309-1.066-2.201-.321-.343-.511-.555-.944-.877-1.263-.221-.219-.676-.466-.894-.378-1.203.491-1.99-.166-2.44-1.039-.439-.853-.805-1.209-1.738-.78-.217.099-.581-.118-.859-.267 1.159-.254 1.713-1.029 1.616-2.314-.063-.831-1.06-1.298-2.907-1.323.028.285.041.562.084.834.046.291.12.578.242 1.147-.34-.396-.524-.765-.662-.748-2.472.301-2.512-2.126-3.69-3.261-.138-.134-.201-.345-.245-.651 4.913 3.256 10.4 3.206 15.914 3.009l-9.157-2.648-.416 1.06-3.067-2.843-.718 1.545-.944-2.263.12-.103.927.997.776-1.582 2.01 2.817.303-.091.171-1.258zm35.46-35.531c-3.946.208-7.647.847-10.387 4.036 2.111 1.173 3.593-1.093 5.617-.876l-1.689 1.204.053.13c.627-.187 1.244-.462 1.886-.546 2.452-.32 4.91-.768 7.37-.806 2.326-.036 4.011 1.597 5.946 2.995-1.09-.194-1.948-.404-2.817-.468-.282-.021-.592.336-.89.52.239.269.427.654.726.78.502.212 1.083.229 1.614.382 1.465.418 2.942.811 4.37 1.336.392.145.628.717.963 1.126-1.602-.629-3.072-1.259-4.581-1.77-.588-.199-1.315-.298-1.89-.133-.516.148-1.288.74-1.27 1.102.027.54.547 1.312 1.045 1.508.66.261 1.525.182 2.26.038 2.54-.494 4.347.873 6.153 2.287.068.054.04.234.088.573-2.453-2.166-5.128-2.918-8.138-2.001-1.046.318-1.531 1.024-1.936 2.517.715-.03 1.36.012 1.979-.099.585-.105 1.132-.397 1.709-.557 3.53-.978 6.63.47 8.316 3.874.285.575.592 1.144.816 1.745.236.632.584.934 1.303.974.4.025.771.443 1.17.659.264.143.551.241.828.359.096-.288.306-.591.269-.862-.407-3.026-1.611-5.757-3.171-8.348-3.269-5.425-8.405-9.491-14.416-11.316l.988-.803c-.354-.245-.82-.664-1.363-.927-3.58-1.744-7.351-2.565-11.336-2.16-.954.097-2.156.196-2.172 1.454-.003.257 1.478.753 2.277.758 2.817.017 5.635-.172 8.453-.189.736-.004 1.474.334 2.068.48-2.633-.057-5.377-.219-8.114-.145-2.727.073-5.443.894-8.158-.085-.241 1.743.265 2.685 1.877 2.721 1.718.037 3.484-.244 5.159-.663 2.335-.583 4.65-1.066 7.026-.804zm39.689-4.416c2.714-1.625 5.403-2.04 8.137-2.324l3.803-.556c.361-.078.629-.586.941-.896-.336-.291-.654-.804-1.009-.831-1.098-.082-2.242-.136-3.31.083-2.92.599-5.65 1.732-8.106 3.445-.762.531-1.426 1.202-2.139 1.813l1.229.472c-8.294 5.007-12.736 12.148-13.503 21.586-.01.128-.025.265.008.385.145.529.307 1.054.462 1.579l1.027-.928c.126-.113.249-.304.386-.316 1.372-.121 1.329-1.259 1.702-2.181.602-1.491 1.213-3.026 2.118-4.336 1.444-2.088 3.728-2.235 6.024-2.001s2.289.266 3.136-.367c-.755-1.616-2.104-2.224-4.159-1.88-2.393.402-3.641 1.148-5.674 3.445-.01-.265-.093-.506-.011-.596 1.571-1.732 3.159-3.426 5.799-3.331.583.021 1.332.007 1.723-.324.508-.43 1.031-1.201 1.011-1.808-.031-.903-.976-1.002-1.714-.861-2.043.388-3.714 1.486-5.189 2.911-.111.107-.233.2-.35.299l-.285-.257c.448-.465.82-1.065 1.36-1.369 1.511-.849 3.111-1.543 4.632-2.378.389-.214.617-.72.918-1.093-.49-.107-1.017-.383-1.459-.281-.677.157-1.294.574-2.282 1.046 2.204-2.402 4.018-4.556 7.39-4.472 2.406.06 4.821-.324 7.315-.316l-1.833-.825.058-.229c.961.139 1.917.328 2.883.402a8.718 8.718 0 0 0 2.645-.193c-3.268-2.855-7.051-2.732-11.278-2.028 1.831-.815 4.478-.943 7.455-.706 1.521.12 3.1.148 4.591-.123 1.915-.35 2.406-1.319 2.073-2.818l-11.252 1.72c-1.667.291-3.279.883-5.271 1.438zm-29.684 52.342c-1.902 2.446-4.367 4.216-6.986 5.792-1.339.807-2.713 1.554-4.219 2.09l2.179-1.465 2.972-2.028c2.998-1.811 3.538-4.805 3.702-7.889.039-.75-.727-1.544-1.371-2.305-.608 3.157.202 6.657-2.733 8.997l.234-4.563-.293-.135c-1.031 2.968-1.755 6.116-4.511 8.071l.492-2.947c.063-.544.13-1.187-.099-1.633-.198-.383-.815-.552-1.245-.815-.185.401-.615.885-.512 1.188.546 1.611.141 3.112-.275 4.876l-1.218-1.932.537 3.187c.104.713-.206 1.159-.884 1.498-1.629.818-1.61.855-1.04 2.811.227-.065.48-.086.676-.203 4.524-2.692 9.112-5.288 13.542-8.127 3.929-2.519 6.267-6.378 8.039-10.603.128-.306.28-.601.421-.901l-.026.037.09-4.201a5.63 5.63 0 0 1-.136.016l-2.045 5.575c-.092-6.493-1.328-12.182-8.31-14.764l.268-.879c.094-.283.201-.561.327-.911l1.061.321c.826-.541-.154-1.253-1.546-1.14l-.508.049-.089-.324 1.104-.203c1.112-.199 2.293-.242 3.301-.681.355-.154.288-1.278.415-1.957l-.307-.345-2.491.975-.211-2.183-1.803 1.448-.639-.662-.667.654-1.469-.723c.416 2.001.235 3.61-2.144 4.035 1.235 1.243 2.378.993 3.644.348l1.185 2.088c-3.937-.581-6.906.666-9.642 2.832-.675.535-1.755.579-2.661.794-.483.114-.994.108-1.577.164.258.994.777 1.114 1.491.826l1.853-.763c-2.404 4.697-1.641 6.781 2.649 6.856-1.122-.644-2.068-1.099-2.9-1.706-.36-.264-.76-.917-.667-1.269.265-1.012.56-2.146 1.221-2.903 2.621-3.008 5.994-4.158 9.936-3.455.654.116 1.256.529 2.081.893-1.262.983-3.066-.144-3.714 1.717.751-.297 1.392-.67 2.077-.791.746-.131 1.683-.301 2.276.024 1.821.998 3.487 2.216 4.071 4.436 1.175 4.464.689 8.571-2.401 12.179l-.505.629z"/><path d="M35.151 100.556c2.121 5.42 5.835 9.406 10.932 12.151l6.333 3.433c3.589 2.008 7.379 3.749 10.69 6.147 6.363 4.607 10.25 10.846 10.869 18.874.08 1.045.317 2.078.593 3.088.296-9.521-2.93-17.486-10.656-23.302-2.549-1.919-5.335-3.532-8.053-5.219-1.223-.758-1.737-1.701-1.409-3.122.065-.282.171-.556.141-.893l-.802 1.141-.684-4.396c-.059-.324-.326-.611-.498-.916-.291.314-.823.623-.83.943-.019.928.161 1.862.288 2.789.063.462.185.915.096 1.469-2.841-1.588-2.866-4.864-4.405-7.312l.409 4.231c-1.352-.313-1.906-1.129-2.328-3.642-.253-1.513-.315-3.057-.469-4.663-.908-.165-1.166.432-1.276 1.146-.418 2.683.189 5.102 2.281 6.884 1.657 1.412 3.527 2.573 5.304 3.842.395.281.798.554 1.079 1.046-.529-.238-1.11-.4-1.577-.727l-8.163-5.808c-.487-.352-.936-.689-.649-1.528.163-.474-.245-1.142-.389-1.725-.608-2.464.39-4.561 2.613-5.5 1.83-.773 3.211.025 3.413 1.977l.247 2.554c.536-.524.988-.782 1.157-1.165.715-1.627-.114-3.114-1.479-4.254-1.447-1.208-2.494-.816-3.742.054-.379.264-.85.4-1.287.575-2.248.9-2.812 1.824-2.445 4.237.126.832.434 1.637.651 2.423-2.997-2.704-3.237-6.646-.745-13.028-.568-.91-1.07-.824-1.677.037-1.527 2.17-1.674 4.63-1.586 7.142.03.812.149 1.619.234 2.504-1.771-1.049-2.381-4.196-2.286-11.533-.989 3.527-.784 6.808.138 10.079l-.03-.033zm21.625 85.222-1.574-1.039c.516.029.824-.002 1.106.069 4.447 1.141 7.623 3.764 9.294 8.083.42 1.085.319 1.203-.689 1.884l-.255-1.376-1.259.412c.26 1.265.655 2.549-1.068 3.234l.169-2.31c-1.455-.29-1.657-.062-2.129 2.321-1.169-.605-2.016-.064-3.211 2.05 2.765 1.803 3.337 1.851 5.741.48l-.551-.847 2.866-.959c-.053 1.684-1.344 3.2-3.415 3.532-1.341.215-2.968.331-4.089-.245-1.044-.537-1.587-2.048-2.265-3.007-.412 2.499 1.745 4.565 4.925 4.478 3.902-.107 6.509-2.814 6.894-7.058.403-4.446-1.942-7.488-5.099-10.096-3.186-2.634-7.029-3.174-10.97-3.268 1.542-.476 3.282-.373 6.158.288 1.791.412 3.587.846 5.404 1.095 2.766.379 3.342-.116 3.884-3.022-1.612.156-3.204.492-4.779.425-4.149-.173-8.292-.595-12.578.223 1.234-.749 3.151-1.057 6.028-1.027l6.301.046c.423-.006 1.114-.233 1.208-.516.255-.763-.316-1.261-1.02-1.304-1.864-.115-3.783-.404-5.593-.102-2.514.417-4.956 1.286-7.41 2.024-.493.149-.901.58-1.194.775l.433 1.443c-1.045.699-.302 1.968-.673 3.283l5.371.109-.564-1.235 4.546 1.232.057-.075zm46.313-84.993c-2.538 3.678-5.568 6.87-9.115 9.553l-.242-.24c1.118-1.092 2.289-2.134 3.336-3.29 1.002-1.105 2.005-2.249 2.774-3.517 1.217-2.008 1.089-4.197.251-6.32-.167-.424-.749-.686-1.115-.999l-.219 7.7c-.013.306-.285.615-.475.896-.105.156-.29.257-.617.532l-.429-4.449-.312-.043c-.88 2.708-.23 5.973-2.545 8.16l-.376-.071c.019-.781.083-1.565.042-2.343-.034-.677-.102-1.379-.325-2.01-.106-.299-.609-.458-.932-.681-.12.318-.347.639-.343.956.017 1.404.102 2.808.174 4.486l-1.004-.958c-.032.072-.084.133-.071.17.197.556.455 1.097.596 1.667.251 1.011-.147 1.684-.995 2.356-3.7 2.936-7.047 6.236-9.676 10.193-3.927 5.907-5.162 14.017-3.138 21.364-.025-.96.024-1.928-.087-2.878-1.047-8.964 2.129-16.406 8.545-22.422 4.055-3.803 8.567-7.12 12.86-10.672 3.56-2.943 6.508-6.35 7.944-10.845.376-1.175.637-2.387.951-3.583l-.017.035c.301-3.389-.151-6.645-1.714-9.705.818 3.815 1.763 7.623.094 11.462-.389-1.856-.608-3.771-1.221-5.549-.444-1.289-1.363-2.431-2.162-3.575-.536-.765-1.176-.803-1.717.296 3.36 3.94 4.658 8.276 1.709 13.138l-.429 1.188zM49.176 85.638c.172.846.903 1.183 1.844 1.112 3.411-.253 4.344 1.963 3.977 4.658-.282 2.072-1.257 3.802-3.508 4.453a13.72 13.72 0 0 0-3.19 1.364c.438.12.871.328 1.314.348 3.453.155 7.989-3.679 8.096-7.141.042-1.393-.672-2.868-1.274-4.201-.467-1.035-1.328-1.886-1.947-2.861-.457-.718-.894-1.471-1.189-2.264-.659-1.78-.132-2.741 1.669-3.509-.568-.003-1.157-.105-1.698.014-.833.183-1.629.525-2.445.785-1.412.45-2.724.198-3.892-.676-1.044-.781-1.025-1.745.202-2.284 1.434-.631 2.994-.979 4.509-1.419 1.453-.423 2.968-.71 4.018-2.089-2.429.615-4.306-.579-6.287-1.588-3.354-1.708-5.871-.391-6.622 3.331s.539 6.122 4.063 7.544c.834.337 1.708.602 2.488 1.034.577.32 1.222.767 1.492 1.325.25.521.186 1.317-.032 1.878-.087.22-.97.129-1.586.188zm-22.49 54.878-5.549 6.985c-.168.217-.173.726-.036.981l1.984 3.32 3.34-2.976.714 7.393c2.153-2.714 2.354-5.873 3.41-8.769l.207 7.67.758-1.071c.768-1.252 2.139-1.47 3.246-.487l2.658 2.415c.021.019.076.001.114.001 2.095-3.75.58-9.793-3.101-12.545l.789 3.963c-1.221-2.369-2.132-4.894-4.327-6.668 1.137 2.869 1.96 5.751 1.074 8.893l-2.608-8.776-.186.021-.6 5.684-.161.006-.272-6.506-2.63 6.923-.291-.107 1.467-6.35zM70.158 66.72l2.958-6.865c.701-1.53 2.071-2.271 3.668-2.487.531-.072 1.319.097 1.629.462.381.449.448 1.211.512 1.851.019.192-.527.657-.65.605-.491-.204-.918-.564-1.377-.871-.391.756-.137 1.48.678 1.939.882.498 1.684.167 2.294-.554 1.199-1.42.512-3.638-1.354-4.084-.996-.238-2.08-.105-3.311-.146.348-.45.596-.895.954-1.215 2.126-1.893 4.662-2.872 7.467-3.068 1.583-.11 2.834 1.096 2.966 2.618.08.923-.136 1.788-1.059 2.126-.479.175-1.418.164-1.592-.114-.367-.582-.365-1.396-.528-2.175-.668.27-.992.953-.868 1.895.137 1.038.805 1.581 1.771 1.779 1.597.327 2.99-.307 3.59-1.59.704-1.508.408-3.563-.94-4.422-1.148-.732-2.542-1.078-3.936-1.638l.7-.975 1.09-1.523-2.506 1.179.05-1.851c-.025-2.113-.621-4.001-2.387-5.305-1.67-1.233-3.516-1.36-5.331-.369-1.733.946-2.791 2.413-2.707 4.478.083 2.002 1.58 3.324 3.237 2.939 1.431-.333 1.927-1.641 1.089-2.972-.137.914-.302 1.828-1.539 1.533-.767-.183-1.121-1.316-.794-2.309.455-1.384 2.12-2.453 3.641-2.337 1.416.108 2.346 1.06 2.696 2.671.465 2.143-.3 3.903-1.731 5.399l-4.117 3.947-.464-2.188c-.354-1.258-.986-2.422-2.39-2.551-.797-.073-1.925.171-2.397.713-.514.591-.615 1.705-.551 2.566.036.465.728 1.101 1.241 1.245.471.133 1.098-.29 1.656-.467l-.08-.333c-.419-.047-1.062.056-1.214-.171-.309-.46-.591-1.165-.454-1.647.229-.811 1.107-1.13 1.763-.641.631.471 1.212 1.24 1.426 1.99.449 1.565.239 3.109-.665 4.566-.675 1.086-1.127 2.309-1.713 3.454-.778 1.523-.906 3.1-.422 4.913zM57.812 48.026c-.521 1.274-.179 2.094.782 2.576 1.026.514 2.016.315 2.792-.567.908-1.032 1.013-2.907.183-4.228-1.144-1.823-2.821-2.754-4.984-2.532-2.17.223-3.794 1.422-4.251 3.539-.366 1.698-.184 3.513-.249 5.396l-2.261-.576 2.391 2.293c-.954.425-1.896.73-2.715 1.234-1.716 1.053-2.248 2.852-1.509 4.701.768 1.921 3.218 2.644 4.793 1.299.472-.403.831-1.259.777-1.867-.055-.615-.685-1.179-1.063-1.765l-.383.228c.053.118.092.247.161.354.541.831.605 1.626-.297 2.228-.718.479-1.794.087-2.316-.767-.888-1.45-.092-3.454 1.613-4.112 1.798-.695 8.123.246 9.536 2.67-.816.079-1.558.079-2.265.235-1.096.241-2.167.775-2.25 1.982-.058.842.242 1.858.732 2.547.56.79 1.584.897 2.403.203.713-.604.814-1.371.313-1.988l-1.328 1.125c-.295-.419-.769-.808-.849-1.265-.158-.912.355-1.641 1.245-1.835 1.702-.368 3.338.004 4.43 1.376 1.356 1.701 2.485 3.585 3.71 5.391l.609.938.398-.118c-.322-1.175-.437-2.469-1.018-3.5-.876-1.555-2.006-2.987-3.161-4.36-1.147-1.365-1.398-2.923-1.265-4.573.045-.543.389-1.202.811-1.534.386-.302 1.146-.44 1.586-.263.372.151.79.915.702 1.294-.099.421-.744.718-1.162 1.058-.083.067-.209.079-.338.125 1.178 1.015 2.358.676 2.691-.735.287-1.21-.336-2.49-1.455-2.994-1.155-.52-2.809-.097-3.313 1.133-.502 1.223-.62 2.604-.941 4.072l-5.41-3.757c-1.403-1.086-1.952-2.67-1.86-4.454.082-1.592.955-2.692 2.358-2.962 1.506-.29 3.39.577 3.901 1.872.327.832.464 1.782-.534 2.24-1.067.489-1.411-.379-1.74-1.357zm-9.269 80.616c1.212-.032 1.949.824 2.721 1.587l4.633 4.64c.225.226.434.468.849.498l-6.246-8.698c-.952-1.286-2.174-1.654-3.913-1.511-2.486.203-5.026-.232-7.542-.388l-2.659-.059c2.441.493 5.03.284 7.287 1.75-8.143-1.567-15.875-1.057-22.75 4.039 11.776-4.255 22.894-3.618 33.076 4.288l.245-.203-3.029-2.751c-1.001-.939-1.972-1.91-2.956-2.867l.285-.325zm-2.834 27.663-1.133 1.952c-1.873 3.715-2.717 7.747-3.519 11.783-.071.358.16.906.436 1.177.572.562 1.27.995 1.758 1.363 1.475-1.512 2.78-3.042 4.293-4.327.884-.752 2.06-1.229 3.181-1.612.856-.292 1.396-.784 1.413-1.577.008-.398-.533-.844-.893-1.199-.296-.292-.693-.484-1.29-.884l3.228-.311-.201-2.086c-2.394 1.602-3.813.216-5.027-1.749l-.308.182.437 2.04c-1.092-.144-1.453-.617-1.521-1.822-.054-.966-.227-1.927-.347-2.888l-.508-.042zm-11.7-23.755c1.339 1.947 1.339 1.947.4 4.762l2.682.51.056.233-1.707.423c-.633.094-1.28.117-1.922.12-.623.004-1.247-.059-1.87-.091l-.216.417c1.123.788 2.161 1.764 3.39 2.313 1.349.603 2.858.927 4.33 1.142.7.102 1.479-.329 2.182-.508l-3.957-1.08.108-.501 3.073.329-1.354-1.228c2.444.176 3.267 2.042 4.46 3.681l4.16-1.553c.224-.093.484-.734.392-.844-.479-.582-.288-1.885-1.589-1.622-1.195.243-2.363.428-3.471-.321-.842-.569-1.305-1.178-1.08-2.337.591-3.04.53-3.052-2.292-4.472l-.232-.11c-2.846-1.441-3.028-1.417-5.543.737zm37.068-62.44 2.234-1.154.204 2.108-2.914 1.291 2.551.076c-.666.888-.527 2.322-2.496 1.709l1.596 2.26c-.516-1.582.915-1.425 1.604-2.026l.872 1.718c.516-.892.576-1.647.152-2.657-.392-.934-.265-2.085-.373-3.2.941-.116 2.205.161 2.57-1.504l-1.26.353.675-.982-3.434-.264c.708-1.716 1.802-2.6 3.526-2.729 2.105-.157 3.939-1.014 5.676-2.204 1.852-1.27 2.46-1.113 4.119.369.367.329 1.005.417 1.535.493l4.712.595c1.939.322 3.366 1.372 4.237 3.185l2.013 3.725c2.043 3.049 4.966 3.982 8.308 2.599l-2.92-.55c-2.153-.406-3.771-1.484-4.734-3.532l-2.354-4.423c-.959-1.873-2.355-3.073-4.507-3.419-.966-.155-1.877-.655-2.812-.999l.037-.347 1.313-.683c-2.07-.651-4.074-.551-5.795.391-3.311 1.812-6.682 3.362-10.369 4.242-.916.218-1.746.895-2.543 1.464-.34.242-.591.718-.713 1.138-.3 1.027-.502 2.082-.706 2.959zm-5.999-1.504-3.281.907.846.888-1.164-.18c.336 1.167.457 1.213 2.49 1.073 1.277 1.791-.575 4.005 1.056 5.765l.468-1.718c1.856.255 1.856.255 2.012 1.499l1.136-2.414c-1.67.798-1.979-.444-2.718-1.315l2.486-.529-3.098-.712-.335-2.085 2.478.666-1.267-2.82c-.245-.447-.725-.95-1.187-1.06l-5.876-1.167c-1.204-.223-2.47-.249-3.61-.644-2.361-.817-4.68-1.741-7.246-1.277a7.016 7.016 0 0 0-2.369.877l1.612.395c-.847.616-1.397 1.253-2.078 1.472-2.925.936-4.256 3.098-4.911 5.9-.273 1.165-.753 2.282-1.033 3.447-.542 2.255-1.991 3.623-4.083 4.427l-2.621 1.052c3.383.718 5.931-.573 7.45-3.794.597-1.265.968-2.655 1.303-4.023.55-2.241 1.905-3.697 4.034-4.462l3.305-1.05c1.088-.336 2.164-.52 2.79-1.78.252-.506 1.37-.729 2.118-.793.59-.05 1.25.275 1.823.551a9.494 9.494 0 0 0 5.252.903c1.732-.192 3.138.277 4.219 2.003zM7.824 146.555l3.693-1.372c.214-.084.424-.283.546-.483 1.611-2.643 4.104-4.297 6.57-6.022l7.822-5.856c-2.726-2.507-13.086-.762-16.362 2.804l9.192-1.297c-3.578 1.215-7.022 2.683-10.165 5.264 1.805-.035 3.355.344 4.902-.743 1.224-.859 2.765-1.269 4.345-1.957-2.082 1.53-4.094 2.801-5.852 4.357-1.748 1.549-3.239 3.388-4.842 5.1l.152.205zm54.362-39.061-.604-1.987c-.6-2.047-1.356-4.066-1.721-6.155-.175-.999.068-2.395.686-3.15 2.218-2.708 3.878-5.599 4.07-9.571l3.279 3.227.378-.41-7.885-9.872.278-.435 2.826 1.214-.577 1.537c1.451.141 3.124.215 3.672-1.109.541-1.307.256-2.955.334-4.454l-.378-.013-.753 1.213-.586 3.011-.397.028c-.527-1.477-1.7-1.867-3.066-2.141-.825-.165-1.565-.751-2.328-1.139-.013 1.511.562 3.099 1.441 4.638 1.404 2.459 2.268 5.059.999 7.834-.583 1.275-1.391 2.461-2.196 3.618-1.697 2.436-2.142 5.012-1.022 7.79a54.701 54.701 0 0 0 1.688 3.738c.461.935 1.019 1.823 1.533 2.732l.328-.143zm18.044-32.08c-.692.499-1.316 1.129-2.071 1.457-1.67.724-1.956.919-2.72 3.002l-1.265-2.695.277-.112-1.337-1.323c-.545 1.853.361 4.372 2.005 4.946.75.262 1.697-.037 2.7-.09l-.949-1.529 2.545-1.743.355.372-5.856 11.217.117.092 2.698-3.531 1.639 3.539c.471 1.311 1.247 2.343 2.382 3.095 3.068 2.03 3.974 4.879 3.288 8.38l-.573 3.552a3.64 3.64 0 0 0 .078 1.44c1.182-2.987 2.365-5.96 2.201-9.245-.083-1.648-.774-3.06-1.861-4.277l-1.798-1.84c-3.138-2.757-3.666-6.11-2.372-9.929.811-2.391.851-3.124.516-4.779zm-52.868 48.764-3.236-3.825-.354.233 1.71 3.878-3.476-2.186-.253.285 2.181 2.802-2.374-1.034 2.416 3.244 4.407-1.428c.34-.131.655-.718.705-1.129.129-1.083.105-2.186.142-3.281l.315-.036.919 3.664.211-.036.439-3.913.191-.017.768 3.213.232.02.794-4.028.204.007.388 4.014c1.552-1.768 1.197-7.959-.727-10.011-.991 4.073-4.316 3.788-7.674 3.94.743 1.085 1.266 2.05 1.979 2.841.896.993.769 1.871.096 2.783zm14.113-47.552c-1.017 1.625-1.343 3.147-.479 4.722l2.752 4.633a18.54 18.54 0 0 1 .875 1.713c.325.716.308 1.346-.687 1.651l-.282-1.075-2.729 1.7.128.297 1.765-.037-1.337 1.218c1.599 1.338 3.116.262 4.632-.084.138 2.046-.022 2.28-4.695 6.841 3.359-1.076 5.954-2.69 6.979-5.864.944-2.921.087-5.46-2.21-7.672-1.647-1.585-2.974-3.531-4.272-5.433-.418-.612-.289-1.599-.441-2.611zm-7.086 122.079c.585-.194 1.209-.314 1.749-.594 6.257-3.253 10.919-8.925 10.352-16.495-.155-2.057-.677-3.917-2.28-5.419-1.467-1.371-2.757-2.933-4.229-4.389 2.679 4.481 1.473 8.845-.335 13.194l.389.179c.672-1.208 1.447-2.372 1.987-3.635.544-1.274.854-2.649 1.27-3.978 1.748 2.197 1.59 7.964-.267 12.182-1.783 4.05-5.123 6.529-8.636 8.955zm-19.666-29.836 2.243 1.433 2.049 1.505.378-.24-2.818-5.201 2.449.289-7.905-5.116c-.276.53-.809 1.202-.989 1.959-.495 2.09.223 3.908 1.685 5.393.713.724 1.6 1.282 2.433 1.878l4.382 3.071c-.704-2.055-2.592-3.254-3.907-4.971zm39.534-29.565 2.368-3.082c-2.689-.105-4.521-1.616-6.429-3.047-.869-.651-1.914-1.14-2.953-1.477l-7.299-2.097 2.029 1.449-.182.318-2.946-1.079c1.873 1.734 3.762 2.367 6.061 2.35 2.274-.016 4.103 1.048 5.579 2.782l-3.805-1.719c.274 3.471.274 3.471-3.207 4.313.548.184 1.094.499 1.646.517.713.02 1.448-.142 2.148-.326 1.66-.437 3.261-.608 4.84.34.584.349 1.305.469 2.15.758zM25.85 176.769c-2.852.807-5.036 4.653-4.512 7.681.674 3.9 3.677 6.702 7.157 6.381 3.829-.353 6.691-2.434 6.906-9.017-1.004 3.058-2.064 5.667-5.087 6.608-1.467.455-2.918.168-4.176-.701-1.847-1.277-2.751-3.139-2.952-5.33-.167-1.809.171-2.441 2.664-5.622zm9.538-60.788c2.191-1.376 2.178-3.443 1.678-5.644l-1.013-4.386c-.802-.057-1.55.006-2.227-.188-.756-.215-1.615-.502-2.126-1.045-.908-.966-1.759-.859-2.751-.327-1.887 1.014-3.161 2.463-3.337 4.692-.215 2.718.936 3.958 3.818 3.978-.193-.185-.303-.338-.451-.422-1.928-1.091-2.174-1.951-1.08-3.834.956-1.647 2.922-2.557 4.573-2.119 1.49.396 2.967 2.538 2.953 4.283l-.037 5.012zm-14.487 57.214-1.12.208.271 2.816-1.063-.093 1.611 3.95 4.11-4.131c.219-.235.23-.793.148-1.159l-1.288-5.226c-.202-.783-2.448-2.096-3.231-1.856-.92.282-.887 1.071-.744 1.799.122.624.371 1.224.587 1.827l.72 1.865zm49.27-77.439c-.644.84-1.196 1.777-1.959 2.489-.784.733-1.941.386-2.129-.574-.071-.366.324-.823.507-1.239l1.024.859c-.036-.375.066-.933-.143-1.098-.297-.238-1.064-.391-1.207-.221-.482.566-1.046 1.28-1.074 1.957-.038.947.781 1.337 1.729 1.253l.91-.088c-.842 1.89-2.915 2.975-4.727 2.484-.398-.107-.819-.318-1.105-.605-.557-.56-.857-1.315-.191-1.928.715-.656 1.34-.151 1.834.464.181.225.327.476.523.766.08-1.409-.443-2.088-1.664-2.242-1.149-.145-1.987.432-2.173 1.494-.255 1.46.684 2.44 2.915 2.986l-.837 1.391 1.128-.262c.206 1.026.288 2.02.612 2.93.588 1.65 2.112 2.316 3.744 1.776a2.78 2.78 0 0 0 1.725-3.643c-.201-.55-.939-.906-1.431-1.35l-1.164 1.502c.767-.025 1.306-.199 1.531-.006.231.198.274.779.194 1.148-.228 1.045-.952 1.448-2.005 1.326-1.337-.155-2.143-.774-1.922-1.899.213-1.085.733-2.178 1.37-3.092.568-.816 1.479-1.393 2.392-2.213.385 1.373.768 2.611 2.456 2.745-.085-.274-.084-.544-.209-.629-1.739-1.185-1.927-1.829-1.208-3.762.336-.9.538-1.85.799-2.777l-.244.057zm5.836.721.924-1.033c.252.377.726.762.713 1.129-.038 1.079-1.17 1.494-2.239.849-.432-.261-.799-.642-1.158-1.006-.342-.348-.634-.745-.947-1.121l-.274.169 1.175 2.366c1.212 1.919 1.188 2.424-.352 4.141-.098.11-.024.375-.031.625 1.583-.467 1.729-1.711 1.832-3.062 1.963.91 3.793 1.835 4.645 3.906.488 1.186.048 2.135-1.112 2.603-1.222.493-2.16.224-2.575-.825-.139-.352-.204-.936-.01-1.157s.754-.116 1.576-.196c-.617-.543-1.041-1.232-1.513-1.267-.871-.063-1.137.737-1.199 1.524-.129 1.649.92 3.047 2.449 3.255 1.691.23 3.084-.723 3.344-2.449.144-.952.03-1.944.032-2.988l1.156.031-.932-1.021c.718-.662 1.517-1.187 2.016-1.915.551-.808.36-1.759-.353-2.47s-1.581-.597-2.376-.149c-.873.492-1.157 1.266-.836 2.427.236-.511.305-.969.569-1.166.428-.319.984-.466 1.484-.686.152.563.551 1.203.406 1.675-.366 1.19-1.495 1.475-2.592 1.494-1.436.024-2.64-.586-3.743-1.788l1.035-.173c.876-.107 1.455-.534 1.495-1.462.04-.943-.478-1.582-1.343-1.8-.375-.094-.968.066-1.231.335-.201.205-.037.766-.036 1.204zM66.005 46.43c.124-3.631-1.361-6.863-2.646-10.17l-.265 4.145c-1.618-.533-2.542-2.179-2.086-3.791.427-1.51.921-3.002 1.386-4.501l-.298-.146c-1.035 1.864-2.139 3.693-3.081 5.603-.621 1.261-.366 2.55.667 3.538 1.971 1.886 3.996 3.716 6 5.57l.323-.248zm2.713-14.974 1.85 3.456c1.118 2.078.961 3.147-.885 5.072l-.552-2.106-.631-2.113c-.595 3.456-1.346 6.899-.543 10.676.518-.57.986-1.015 1.373-1.522l3.682-4.933c1.007-1.4.89-2.849-.152-4.15-1.247-1.558-2.6-3.031-3.907-4.541l-.236.161zM58.335 91.42c2.167-2.395 2.4-5.374.648-7.873-1.805-2.573-1.8-5.017.115-8.255-.426.244-.693.439-.991.559-.408.164-.84.269-1.261.4-.164-.556-.465-1.117-.441-1.665.014-.353.441-.815.8-.994.435-.217.993-.188 1.573-.277-.21-.855-.699-1.026-1.406-.716-.27.118-.589.258-.743.486-.933 1.386-2.158 1.558-3.71 1.219-.507-.111-1.268.438-1.751.867-.569.506-.964 1.21-1.433 1.829.819.181 1.719.094 2.366-.799.682-.941 1.538-.767 2.409-.421 1.253.498 1.724 1.608 1.644 2.788-.038.552-.796 1.055-1.224 1.576l1.116.189c-.934 1.263-.315 2.149.694 2.916 2.26 1.718 2.967 3.875 1.886 6.562-.173.431-.241.907-.353 1.363-.008.035.019.079.062.248zm25.945-2.302-1.335-2.778c-.844-1.654-.701-3.218.375-4.714l.678-.938c.741-.953 1.494-1.901.136-3.072l1.325-.44c-1.16-.222-1.948-.655-1.828-2.029.128-1.471.869-2.507 2.236-2.754.369-.066.897.041 1.171.279.893.779 1.825.837 2.707.481-.579-.534-1.122-1.24-1.837-1.633-.585-.321-1.479-.542-2.053-.325-1.292.487-2.3.486-3.431-.43-1.151-.932-1.769-.733-2.304.48.505-.025 1.01-.184 1.391-.034.483.189 1.058.553 1.24.987s-.079 1.045-.145 1.579l-1.43-.222c-.275-.053-.539-.158-1.028-.308 2.592 2.601 3.196 5.386 1.574 8.443-1.098 2.068-.285 4.966 2.562 7.429zm-21.661 78.479.508-.628.964-2.506c1.169-4.054-2.191-7.938-6.248-7.254-2.513.423-4.165 2.727-3.606 5.172.145.634.644 1.187.981 1.776l.275-.155c-.148-.646-.424-1.296-.418-1.941.016-1.59 1.47-2.916 3.137-2.996 2.355-.113 4.642 2.362 4.333 4.693l-.424 3.312c-.014.159.323.351.498.527zm-31.264-27.894-.815-1.893 3.75.236.153-.323-6.68-3.475c-.602-.278-1.498.011-2.235.154-.183.037-.277.522-.414.801l.312.29c-.266.044-.541.062-.796.14-.955.298-1.216.965-.628 1.749.272.362.656.774 1.062.88l6.29 1.441zm-5.882-2.926c1.472-.541 1.967-.413 2.755.651-1.386.668-2.063.524-2.755-.651zm29.198-35.296c-.753 1.58-.589 2.488.625 3.563.16.142.324.293.513.383 3.454 1.649 4.139 4.509 3.502 7.956-.046.248-.065.502-.103.801 1.89-1.857 1.833-5.641.001-7.404-.816-.784-1.499-1.707-2.386-2.733 1.634-.526 1.582-1.695 1.034-2.52-1.367-2.064-.934-4.063-.216-6.131.041-.119.051-.25.077-.38-1.477.485-2.52 2.805-2.013 4.514.146.49.435.946.524 1.443.074.413-.047.861-.082 1.293l-1.237-.548c-.092-.044-.154-.149-.239-.237zm33.412 61.704c-1.423-2.008-3.07-3.642-5.148-4.663-.86-.422-2.068-.136-3.144-.171-.219 1.462-.137 2.542 1.155 3.269 1.076.607 2.018 1.456 3.109 2.029 1.301.684 2.635.584 4.029-.464zm-12.155-4.226c-3.184-.138-6.174 2.412-7.191 6.038 1.389.84 2.743.872 4.07-.411 1.547-1.493 4.064-2.588 3.121-5.627zm-44.999 18.948c-.596 3.605-2.804 6.078-5.689 7.997 1.675 2.325 3.346 2.392 4.911.259 1.59-2.167 2.708-4.572 2.998-7.272.087-.802-.132-1.639-.397-2.485.072 2.918-.735 5.444-2.634 7.146l1.293-5.454-.482-.191zm5.982-8.339c1.308.422 2.017-.028 2.406-1.372l2.338-7.058c1.071-2.439 2.51-4.715 3.642-6.794-2.794.677-6.153 6.501-8.386 15.224zm-8.67-69.066c1.085.773 2.123 1.236 2.737 2.026.646.83 1.369 1.206 2.311 1.385l3.206.632c-1.005-2.161-2.23-3.904-3.968-5.136-1.83-1.296-4.029-.46-4.285 1.093zm26.954 76.424 2.872-.287c2.074-.331 3.997.069 5.843 1.026l3.477 1.65c.372.151.879-.029 1.323-.058-.035-.491.068-1.055-.142-1.454a2.75 2.75 0 0 0-1.173-1.136c-3.763-1.774-7.591-1.858-11.447-.288-.188.078-.338.241-.754.547zm18.698-44.371c-.555-1.392-.954-2.876-1.702-4.156-1.12-1.917-2.514-3.672-3.735-5.534-.724-1.105-1.447-2.235-1.973-3.441s-.377-2.456.61-3.461c.809-.824 1.794-1.146 2.933-.855.962.245 1.591.757 1.559 1.878-.025.875.068 1.753.114 2.754 1.059-1.357.889-3.252-.276-4.374-1.153-1.11-3.23-1.192-4.497-.176-1.71 1.372-2.111 3.982-.85 5.934l2.168 3.031 5.425 8.367.224.033zm2.346-13.198-.257-2.627c-.184-1.482.466-2.351 1.944-2.562 1.867-.268 3.581 1.086 3.491 3.014-.059 1.247-.458 2.521-.92 3.699l-2.914 6.852c-.523 1.439-.652 3.02-.959 4.538l.373.072c.065-.041.177-.076.187-.128.816-4.404 2.991-8.272 4.8-12.288.938-2.081.495-4.137-1.083-5.498-1.399-1.207-3.515-1.153-4.779.122-1.222 1.233-1.234 3.183.118 4.806zm-27.663-4.253c-2.532-1.764-5.281-1.653-8.015-1.045-1.17.26-2.311.853-3.325 1.509-.405.263-.435 1.104-.634 1.681l1.777.131c.075.004.164-.057.229-.11 2.803-2.341 6.204-2.005 9.504-2.122.155-.006.309-.029.464-.044zm-5.041 65.214-4.762 8.13.088.15 3.268-2.887-2.607 8.012c2.692-1.967 4.988-10.247 4.013-13.405zm-5.796-22.933.785 1.956 5.359-7.516-4.497-.708-.541 4.743c-.079.531-.443 1.02-.676 1.528a30.89 30.89 0 0 1-.431-.003zm-10.902 26.079c.457-.626 1.208-1.466 1.72-2.432a3.05 3.05 0 0 0 .242-1.993c-.105-.431-.733-.862-1.22-1.034-.439-.156-1.238-.156-1.468.119-.727.867-1.45 1.827-1.83 2.875-.611 1.679.302 2.673 2.555 2.465zM58.742 71.628l-1.746-2.254 1.532-.067c-.771-1.396-2.997-2.539-4.648-2.212-1.462.29-2.884.793-4.396 1.222.168.045.311.124.445.113 1.779-.154 2.312 2.395 4.208 1.947 1.762-.416 3.205.087 4.348 1.533l.256-.281zm20.928-4.346 1.522-.276-1.282 2.463.241.275c1.034-1.876 2.672-2.361 4.596-2.305.272.007.567-.434.834-.687l2.435-2.328c-2.269.516-5.106-1.228-7.351 1.242-.421.465-.945.837-1.423 1.251l.429.365zm-19.609 49.637 2.842 1.849c1.021-3.232 1.081-6.202-.893-9.21l-1.949 7.361z"/><path d="m35.179 100.589-1.123-2.527c-.082-.191-.077-.418-.109-.63-.531-3.509-1.568-4.086-5.247-2.629.543.745.966 1.507 1.563 2.092.758.743 1.695 1.302 2.488 2.014.761.682 1.437 1.457 2.181 2.225l.214-.583a1 1 0 0 1 .033.038zm13.123 38.002c.214.619.336 1.147.57 1.621 1.201 2.432-1.096 4.539-3.159 4.389l-3.578-.314c-1.675-.058-2.528.517-3.003 1.869-.525 1.498-.118 2.827 1.246 3.812-.984-1.276-1.568-2.685-.555-4.102 1.05-1.469 2.632-.814 4.046-.663l2.29.265c2.008.063 3.327-.715 4-2.571.835-2.302.666-3.286-1.857-4.306zm37.535 20.477c-.689-1.296-1.518-2.538-2.036-3.899-.918-2.407-2.21-2.95-4.522-1.664.918 1.926 3.703 4.655 6.52 6.366l.002-.836.035.033zm-15.808 1.494.082.845c2.496-2.042 4.075-4.636 5.364-7.47-2.493-.897-3.764-.114-4.209 2.294-.273 1.481-.829 2.91-1.26 4.365l.024-.034zm-44.152-20.881-2.041-1.166c-1.625 2.55-2.972 5.117-3.046 8.562 2.478-2.141 3.531-4.824 5.087-7.396zm45.02.768c-1.464 1.22-1.246 3.332-2.256 4.885l-.829-.584 1.131 3.438.164-.008-.085-1.927 4.371.913.041-.117-1.389-.669 1.214-1.094-1.26-.03.872-1.748-2.517.796 1.425-1.565-1.427.355.926-2.361-.38-.284zm13.151 4.338.272 1.912.146.012.502-3.628-.698.757c-1.334-1.237-1.447-3.477-3.153-4.392l-.366.269 1.398 2.265-1.509-.162 1.704 1.312-2.604-.294 1.209 1.532-1.216.298 1.381.844-1.26.914.063.121 4.135-1.76zM33.01 84.097l1.494 1.478-.068.172-2.293-.756.62 1.383-1.051.004 1.068 1.018-1.175.738 3.957-.868-.043 1.559.941-2.466-.34.132-.959-2.035-1.12-2.031-.461.238.776 1.726-1.348-.29zm15.898 86.948c-2.011-.352-3.247.869-3.98 2.349-.721 1.454 1.067 2.28 1.345 3.626 1.704-1.706 1.339-3.649 1.038-5.569l1.597-.406zM39.95 97.926l4.375-3.746-.938-.472c-1.892-1.157-2.433-.996-3.152 1.124-.321.947-.436 1.965-.643 2.951l.358.144zm9.151 88.701c1.151 3.083 4.728 4.11 6.084 7.533l-7.82.754.04.472 1.169-.036 6.111-.806c.988-.112 1.113-.635.845-1.412-.123-.359-.268-.76-.53-1.011l-5.898-5.494zm-8.212 9.781 5.83 1.125c-.013-1.481-.699-2.288-1.8-2.798-1.445-.669-2.454-.264-4.03 1.673zm-18.524-42.859 3.885 2.318-.529-5.48-3.356 3.162zm13.376 11.027c.909-1.404.117-3.353-1.574-3.789l-4.219-.885.14 1.448c1.162.231 2.41.206 3.336.738.936.539 1.554 1.631 2.317 2.488zm14.915-69.729c2.353-1.165 2.999-3.303 1.792-5.158-.299-.46-.709-.853-1.094-1.251l-3.274-3.337c.03 1.267.648 2.616 1.754 3.754l1.301 1.241c1.49 1.55 1.41 2.895-.479 4.751zm20.889 18.683c-.296-.604-.729-1.181-.848-1.817-.113-.606-.13-1.48.219-1.871.865-.964.642-1.925.452-2.98-2.995 1.597-2.954 4.37.177 6.668zm2.678-7.06c.002 1.2-.003 2.179 1.02 2.98.427.335.505 1.267.516 1.931.011.605-.282 1.215-.491 2.007 2.791-2.844 2.432-5.136-1.045-6.918zm-37.686 67.659-.045-1.462-.258.021 1.258-1.623c-2.244-.735-2.529-.51-2.576 1.811-.004.2-.396.371-.466.6-.139.453-.179.937-.261 1.408l.354.352 1.974-1.036.021-.071zm6.141-61.906-3.58-3.053.394 4.085 3.186-1.032zm11.789 45.381c1.369-.411 1.704-1.004 1.116-2.21-.857-1.759-1.537-3.605-2.325-5.487l-1.111.62c1.725 2.062 2.308 4.47 2.319 7.077zm-32.1 2.893c.41 1.011.629 1.95 1.166 2.639.168.214 1.302-.106 1.798-.458.267-.189.325-1.074.121-1.454-.599-1.11-1.685-.849-3.085-.727zM77.09 76.433l1.35-2.593c.709-1.324.366-1.94-1.111-2.066-.4-.034-.788-.224-1.23-.357l.991 5.016zm-14.193 1.494-.313-3.494c-.01-.556.229-1.117.383-1.793-.576.273-.977.537-1.418.659-1.261.348-1.514 1.05-.689 2.116l2.037 2.511zm-33.178 53.798-.707 2.143 2.285.643c.57-.937.85-1.917.168-2.743-.318-.386-1.152-.347-1.753-.501l.007.458zm-3.915 28.925c.413.648.699 1.499 1.288 1.867.339.211 1.293-.227 1.722-.633.232-.219.056-1.387-.134-1.441-.821-.235-1.715-.219-2.581-.294l-.295.501zm27.405 41.489c.017-2.625-2.927-4.983-5.343-4.204a8.85 8.85 0 0 1 5.343 4.204zm-11.886-79.702c-2.405-.879-3.932-.626-5.362.911l5.394-.52-.033-.391zm-8.025 47.736c1.769.145 2.727-.425 2.653-1.569-.105-1.629-1.378-.494-2.119-.962l-.534 2.531zm-.442-37.082-1.163 1.926c1.108 1.671 1.732 1.838 2.881.728l-1.718-2.654zm-2.607 43.662c-.227-.574-.273-1.199-.565-1.348-1.785-.915-2.799-2.403-3.408-4.593-.163 2.577 1.716 5.387 3.973 5.941zm25.296 14.179c1.742 1.906 3.922 2.706 6.808 2.464l-.569-1.911-.384.086.058 1.346c-2.295.267-3.894-1.454-5.913-1.985zm-21.551-25.507-2.783.078c.165.801.218 1.552.519 2.182.078.162 1.163.137 1.397-.137.412-.481.525-1.219.867-2.123zm-11.926-3.645-2.798 1.242c.685.609 1.198 1.438 1.827 1.538.879.139 1.311-1.197.971-2.78zm10.969 6.542c-1.956-.304-2.614.004-2.557 1.272.013.29.602.762.953.788 1.174.086 1.722-.66 1.604-2.06zm6.497 13.779c1.013-2.062.771-4.298.727-6.506l-.336-.048-.901 6.434.509.12zm-13.638-18.816c.016 2.027.171 2.281 1.414 2.072 1.273-.216 1.085-1.169.947-2.139l-2.361.067z"/><path d="m25.428 163.437-2.844.859c.502.642.819 1.324 1.352 1.618.294.161 1.171-.204 1.384-.565.257-.438.087-1.125.109-1.912zm-4.848-38.183-1.135 4.705c1.88-1.109 2.527-3.624 1.135-4.705zm29.915-22.421c-1.666 1.153-1.743 2.554-.732 4.099.945-.991 1.154-2.156.732-4.099zm-21.757 60.271.056 1.944c1.904.269 1.947.231 2.135-1.952l-2.191.008zm36.146-6.359-.686-2.851-2.289 2.888 2.976-.037zm-33.838 9.106-2.898-.055c.426.85.636 1.925 1.074 2.027 1.494.349.868-1.281 1.825-1.972zm7.137 9.944c-1.31-.556-1.991.03-2.387 1.162 1.027 1.165 1.695.872 2.387-1.162zm28.132 12.033c-.307-.916-.496-1.901-.971-2.718-.228-.392-1-.466-1.524-.684l-.267.447 2.486 3.085.276-.13zm-39.393-56.439 1.128-1.685-.126-.286-3.471 1.001.03.262 2.438.708zm6.904 33.046-1.806-1.729-.444.192c.063.664-.072 1.473.265 1.942.215.302 1.126.106 1.725.132l.26-.537zm11.39-64.655c1.559.648 1.086 2.052 1.606 3.093.819-.373.996-1.014.75-1.819-.329-1.073-1.147-1.31-2.356-1.274zm.122 91.421-1.727 2.453.072.328c.554-.105 1.407-.031 1.599-.352.383-.642.405-1.501.576-2.27l-.519-.159zm11.383-5.351 2.497 1.985 2.26 2.153c-.088-1.442-2.393-3.452-4.702-4.21l-.056.072zm-29.68-81.479 2.69-1.793c-1.715-.862-2.796-.081-2.69 1.793zm9.496 69.758-.021.072c-.035 1.04.507 1.08 1.167.584.502-.376.888-.907 1.401-1.451-.838-.481-1.504-.776-1.986.334-.085.198-.37.31-.562.461zm8.864-25.327 4.378-.422c-2.137-.714-4.263-.495-4.378.422zM30.698 129.99l1.834 1.286-.252-2.599-1.582 1.313zm12.164 17.297c.253.51.758 1.04.691 1.481-.252 1.649-.427 1.713-2.299 1.653l.05.333c.703-.107 1.764.029 2.032-.37.478-.707.539-1.734.609-2.64.011-.146-.836-.357-1.083-.457zm13.664-23.067c-1.293-.859-2.425-.754-3.565.344l3.565-.344zm12.802 25.594.462 4.785.276-.026-.466-4.833-.272.074zm-2.291 1.718.365-3.002c-.505.884-1.969 1.613-.365 3.002zm-9.42 10.01-1.523 1.308 1.308 1.332.215-2.64zm-21.538-39.075 1.967-1.278-.505-.705-1.752 1.68.29.303zm5.819-37.513-1.331-1.658c-.438 1.483-.167 1.835 1.331 1.658z"/></svg>