<svg width="80" height="80" fill="none" xmlns="http://www.w3.org/2000/svg"><path d="M38.467 6.072a7970.598 7970.598 0 0 0-22.313 5.62l-1.287.346V79.2l1.083-.102c.572-.062 6.17-.49 12.403-.92 6.232-.45 17.02-1.226 23.967-1.736 6.947-.51 12.668-.92 12.73-.92.04 0 .081-14.997.081-33.325V8.87l-2.758.143-2.759.144-.04-4.168L59.512.8 38.467 6.073Zm18.247 1.042-.062 2.308-12.974.94c-7.132.532-12.996.94-13.036.9-.082-.082 25.152-6.396 25.663-6.416.45-.02.47 0 .409 2.268Zm-10.768 24.11c1.103.326 2.288 1.39 2.84 2.554.633 1.35.51 3.678-.246 4.986-.531.9-6.191 7.56-7.335 8.602-1.185 1.104-1.512.96-5.722-2.656-4.27-3.657-4.679-4.188-4.679-6.272 0-1.716.47-2.963 1.574-4.19 1.39-1.532 2.656-2.124 4.556-2.145 1.063 0 1.737.123 2.187.368.653.347.674.347 1.553-.265 1.635-1.166 3.515-1.513 5.272-.982Zm17.552 32.038c0 1.185-.062 1.635-.266 1.635-.225 0-19.125 1.818-38.148 3.677-3.433.348-6.436.613-6.682.613-.45 0-.47-.081-.47-1.532 0-.837.062-1.533.164-1.533.225-.02 45.074-4.454 45.258-4.474.082 0 .144.715.144 1.614Z" fill="#673B16"/></svg>